<?xml version="1.0" standalone="no"?>
<!DOCTYPE svg PUBLIC "-//W3C//DTD SVG 1.1//EN"
  "http://www.w3.org/Graphics/SVG/1.1/DTD/svg11.dtd">
<svg width="531.49px" height="354.33px" version="1.1"
    xmlns="http://www.w3.org/2000/svg"
    xmlns:xlink="http://www.w3.org/1999/xlink">
<desc>Veusz output document</desc>
<defs>
<clipPath id="c0">
<path d="m0,0l531.49,0l0,354.33l-531.49,0l0,-354.33"/>
</clipPath>
<clipPath id="c1">
<path d="m0,0.25l531.24,0l0,354.08l-531.24,0l0,-354.08"/>
</clipPath>
</defs>
<g stroke-linejoin="bevel" stroke-linecap="square" stroke="#000000" fill-rule="evenodd">
<g clip-path="url(#c0)">
<g fill="#ffffff" stroke-width="0.62">
<path d="m0,0.25l531.24,0l0,354.08l-531.24,0l0,-354.08"/>
</g>
<g fill="none" stroke-width="1">
<g stroke="none" fill="#000000" fill-opacity="1" font-family="Times New Roman" font-size="17.5" font-style="italic">
<text x="45.15" y="114.61" textLength="8.8">n</text>
</g>
<g stroke="none" fill="#000000" fill-opacity="1" font-family="Times New Roman" font-size="17.5">
<text x="53.95" y="114.61" textLength="18.7">=4</text>
</g>
<g stroke="none" fill="#000000" fill-opacity="1" font-family="Times New Roman" font-size="17.5" font-style="italic">
<text x="45.15" y="169.14" textLength="8.8">n</text>
</g>
<g stroke="none" fill="#000000" fill-opacity="1" font-family="Times New Roman" font-size="17.5">
<text x="53.95" y="169.14" textLength="18.7">=3</text>
</g>
<g stroke="none" fill="#000000" fill-opacity="1" font-family="Times New Roman" font-size="17.5" font-style="italic">
<text x="45.15" y="222.25" textLength="8.8">n</text>
</g>
<g stroke="none" fill="#000000" fill-opacity="1" font-family="Times New Roman" font-size="17.5">
<text x="53.95" y="222.25" textLength="18.7">=2</text>
</g>
<g stroke="none" fill="#000000" fill-opacity="1" font-family="Times New Roman" font-size="17.5" font-style="italic">
<text x="45.15" y="269.7" textLength="8.8">n</text>
</g>
<g stroke="none" fill="#000000" fill-opacity="1" font-family="Times New Roman" font-size="17.5">
<text x="53.95" y="269.7" textLength="18.7">=1</text>
</g>
<g stroke="none" fill="#000000" fill-opacity="1" font-family="Times New Roman" font-size="17.5" font-style="italic">
<text x="45.15" y="326" textLength="8.8">n</text>
</g>
<g stroke="none" fill="#000000" fill-opacity="1" font-family="Times New Roman" font-size="17.5">
<text x="53.95" y="326" textLength="18.7">=0</text>
</g>
</g>
</g>
<g clip-path="url(#c1)">
<g fill="none" stroke-width="1.25">
<polyline fill="none" points="0,126.7 10.84,126.7 21.68,126.7 32.52,126.7 43.36,126.7 54.2,126.7 65.05,126.7 75.89,126.7 86.73,126.7 97.57,126.7 108.41,126.7 119.25,126.7 130.1,126.7 140.94,126.7 151.78,126.7 162.62,126.7 173.46,126.7 184.3,126.7 195.15,126.7 205.99,126.7 216.83,126.7 227.67,126.7 238.51,126.7 249.36,126.7 260.2,126.7 271.04,126.7 281.88,126.7 292.72,126.7 303.56,126.7 314.41,126.7 325.25,126.7 336.09,126.7 346.93,126.7 357.77,126.7 368.61,126.7 379.46,126.7 390.3,126.7 401.14,126.7 411.98,126.7 422.82,126.7 433.67,126.7 444.51,126.7 455.35,126.7 466.19,126.7 477.03,126.7 487.87,126.7 498.72,126.7 509.56,126.7 520.4,126.7 531.24,126.7"/>
</g>
<g fill="none" stroke-width="1.25">
<polyline fill="none" points="0,177.29 10.84,177.29 21.68,177.29 32.52,177.29 43.36,177.29 54.2,177.29 65.05,177.29 75.89,177.29 86.73,177.29 97.57,177.29 108.41,177.29 119.25,177.29 130.1,177.29 140.94,177.29 151.78,177.29 162.62,177.29 173.46,177.29 184.3,177.29 195.15,177.29 205.99,177.29 216.83,177.29 227.67,177.29 238.51,177.29 249.36,177.29 260.2,177.29 271.04,177.29 281.88,177.29 292.72,177.29 303.56,177.29 314.41,177.29 325.25,177.29 336.09,177.29 346.93,177.29 357.77,177.29 368.61,177.29 379.46,177.29 390.3,177.29 401.14,177.29 411.98,177.29 422.82,177.29 433.67,177.29 444.51,177.29 455.35,177.29 466.19,177.29 477.03,177.29 487.87,177.29 498.72,177.29 509.56,177.29 520.4,177.29 531.24,177.29"/>
</g>
<g fill="none" stroke-width="1.25">
<polyline fill="none" points="0,227.87 10.84,227.87 21.68,227.87 32.52,227.87 43.36,227.87 54.2,227.87 65.05,227.87 75.89,227.87 86.73,227.87 97.57,227.87 108.41,227.87 119.25,227.87 130.1,227.87 140.94,227.87 151.78,227.87 162.62,227.87 173.46,227.87 184.3,227.87 195.15,227.87 205.99,227.87 216.83,227.87 227.67,227.87 238.51,227.87 249.36,227.87 260.2,227.87 271.04,227.87 281.88,227.87 292.72,227.87 303.56,227.87 314.41,227.87 325.25,227.87 336.09,227.87 346.93,227.87 357.77,227.87 368.61,227.87 379.46,227.87 390.3,227.87 401.14,227.87 411.98,227.87 422.82,227.87 433.67,227.87 444.51,227.87 455.35,227.87 466.19,227.87 477.03,227.87 487.87,227.87 498.72,227.87 509.56,227.87 520.4,227.87 531.24,227.87"/>
</g>
<g fill="none" stroke-width="1.25">
<polyline fill="none" points="0,278.45 10.84,278.45 21.68,278.45 32.52,278.45 43.36,278.45 54.2,278.45 65.05,278.45 75.89,278.45 86.73,278.45 97.57,278.45 108.41,278.45 119.25,278.45 130.1,278.45 140.94,278.45 151.78,278.45 162.62,278.45 173.46,278.45 184.3,278.45 195.15,278.45 205.99,278.45 216.83,278.45 227.67,278.45 238.51,278.45 249.36,278.45 260.2,278.45 271.04,278.45 281.88,278.45 292.72,278.45 303.56,278.45 314.41,278.45 325.25,278.45 336.09,278.45 346.93,278.45 357.77,278.45 368.61,278.45 379.46,278.45 390.3,278.45 401.14,278.45 411.98,278.45 422.82,278.45 433.67,278.45 444.51,278.45 455.35,278.45 466.19,278.45 477.03,278.45 487.87,278.45 498.72,278.45 509.56,278.45 520.4,278.45 531.24,278.45"/>
</g>
<g fill="none" stroke-width="1.25">
<polyline fill="none" points="0,329.03 10.84,329.03 21.68,329.03 32.52,329.03 43.36,329.03 54.2,329.03 65.05,329.03 75.89,329.03 86.73,329.03 97.57,329.03 108.41,329.03 119.25,329.03 130.1,329.03 140.94,329.03 151.78,329.03 162.62,329.03 173.46,329.03 184.3,329.03 195.15,329.03 205.99,329.03 216.83,329.03 227.67,329.03 238.51,329.03 249.36,329.03 260.2,329.03 271.04,329.03 281.88,329.03 292.72,329.03 303.56,329.03 314.41,329.03 325.25,329.03 336.09,329.03 346.93,329.03 357.77,329.03 368.61,329.03 379.46,329.03 390.3,329.03 401.14,329.03 411.98,329.03 422.82,329.03 433.67,329.03 444.51,329.03 455.35,329.03 466.19,329.03 477.03,329.03 487.87,329.03 498.72,329.03 509.56,329.03 520.4,329.03 531.24,329.03"/>
</g>
<g fill="none" stroke-width="1.25">
<polyline fill="none" points="66.53,-1 75.89,31.73 86.73,67.55 97.57,101.25 108.41,132.85 119.25,162.35 130.1,189.74 140.94,215.02 151.78,238.19 162.62,259.26 173.46,278.22 184.3,295.07 195.15,309.82 205.99,322.46 216.83,332.99 227.67,341.42 238.51,347.74 249.36,351.96 260.2,354.06 271.04,354.06 281.88,351.96 292.72,347.74 303.56,341.42 314.41,332.99 325.25,322.46 336.09,309.82 346.93,295.07 357.77,278.22 368.61,259.26 379.46,238.19 390.3,215.02 401.14,189.74 411.98,162.35 422.82,132.85 433.67,101.25 444.51,67.55 455.35,31.73 464.71,-1"/>
</g>
<g fill="none" stroke-width="1.25">
<polyline fill="none" points="-1.25,329.03 -1.06,329.03 -0.53,329.03 0,329.03 0.53,329.03 1.06,329.03 1.59,329.03 2.12,329.03 2.65,329.03 3.18,329.03 3.71,329.03 4.25,329.03 4.78,329.03 5.31,329.03 5.84,329.03 6.37,329.03 6.9,329.03 7.43,329.03 7.96,329.03 8.49,329.03 9.03,329.03 9.56,329.03 10.09,329.03 10.62,329.03 11.15,329.03 11.68,329.03 12.21,329.03 12.74,329.03 13.28,329.03 13.81,329.03 14.34,329.03 14.87,329.03 15.4,329.03 15.93,329.03 16.46,329.03 16.99,329.03 17.53,329.03 18.06,329.03 18.59,329.03 19.12,329.03 19.65,329.03 20.18,329.03 20.71,329.03 21.24,329.03 21.78,329.03 22.31,329.03 22.84,329.03 23.37,329.03 23.9,329.03 24.43,329.03 24.96,329.03 25.49,329.03 26.03,329.03 26.56,329.03 27.09,329.03 27.62,329.03 28.15,329.03 28.68,329.03 29.21,329.03 29.74,329.03 30.28,329.03 30.81,329.03 31.34,329.03 31.87,329.03 32.4,329.03 32.93,329.03 33.46,329.03 33.99,329.03 34.53,329.03 35.06,329.03 35.59,329.03 36.12,329.03 36.65,329.03 37.18,329.03 37.71,329.03 38.24,329.03 38.78,329.03 39.31,329.03 39.84,329.03 40.37,329.03 40.9,329.03 41.43,329.03 41.96,329.03 42.49,329.03 43.03,329.03 43.56,329.03 44.09,329.03 44.62,329.03 45.15,329.03 45.68,329.03 46.21,329.03 46.74,329.03 47.28,329.03 47.81,329.03 48.34,329.03 48.87,329.03 49.4,329.03 49.93,329.03 50.46,329.03 50.99,329.03 51.53,329.03 52.06,329.03 52.59,329.03 53.12,329.03 53.65,329.03 54.18,329.03 54.71,329.03 55.24,329.03 55.78,329.03 56.31,329.03 56.84,329.03 57.37,329.03 57.9,329.03 58.43,329.02 58.96,329.02 59.49,329.02 60.03,329.02 60.56,329.02 61.09,329.02 61.62,329.02 62.15,329.02 62.68,329.02 63.21,329.02 63.74,329.02 64.28,329.02 64.81,329.02 65.34,329.02 65.87,329.02 66.4,329.02 66.93,329.02 67.46,329.02 67.99,329.02 68.53,329.01 69.06,329.01 69.59,329.01 70.12,329.01 70.65,329.01 71.18,329.01 71.71,329.01 72.24,329.01 72.78,329.01 73.31,329.01 73.84,329.01 74.37,329.01 74.9,329 75.43,329 75.96,329 76.49,329 77.03,329 77.56,329 78.09,329 78.62,329 79.15,328.99 79.68,328.99 80.21,328.99 80.74,328.99 81.28,328.99 81.81,328.99 82.34,328.98 82.87,328.98 83.4,328.98 83.93,328.98 84.46,328.98 84.99,328.98 85.53,328.97 86.06,328.97 86.59,328.97 87.12,328.97 87.65,328.96 88.18,328.96 88.71,328.96 89.24,328.96 89.78,328.95 90.31,328.95 90.84,328.95 91.37,328.95 91.9,328.94 92.43,328.94 92.96,328.94 93.49,328.93 94.03,328.93 94.56,328.93 95.09,328.92 95.62,328.92 96.15,328.92 96.68,328.91 97.21,328.91 97.74,328.91 98.28,328.9 98.81,328.9 99.34,328.89 99.87,328.89 100.4,328.88 100.93,328.88 101.46,328.87 101.99,328.87 102.53,328.86 103.06,328.86 103.59,328.85 104.12,328.85 104.65,328.84 105.18,328.84 105.71,328.83 106.24,328.82 106.78,328.82 107.31,328.81 107.84,328.8 108.37,328.8 108.9,328.79 109.43,328.78 109.96,328.77 110.49,328.77 111.03,328.76 111.56,328.75 112.09,328.74 112.62,328.73 113.15,328.73 113.68,328.72 114.21,328.71 114.74,328.7 115.28,328.69 115.81,328.68 116.34,328.67 116.87,328.66 117.4,328.65 117.93,328.64 118.46,328.62 118.99,328.61 119.53,328.6 120.06,328.59 120.59,328.58 121.12,328.56 121.65,328.55 122.18,328.54 122.71,328.52 123.24,328.51 123.78,328.5 124.31,328.48 124.84,328.47 125.37,328.45 125.9,328.44 126.43,328.42 126.96,328.4 127.49,328.39 128.03,328.37 128.56,328.35 129.09,328.34 129.62,328.32 130.15,328.3 130.68,328.28 131.21,328.26 131.74,328.24 132.28,328.22 132.81,328.2 133.34,328.18 133.87,328.16 134.4,328.14 134.93,328.11 135.46,328.09 135.99,328.07 136.53,328.04 137.06,328.02 137.59,327.99 138.12,327.97 138.65,327.94 139.18,327.92 139.71,327.89 140.24,327.86 140.78,327.83 141.31,327.8 141.84,327.78 142.37,327.75 142.9,327.72 143.43,327.69 143.96,327.65 144.49,327.62 145.03,327.59 145.56,327.56 146.09,327.52 146.62,327.49 147.15,327.45 147.68,327.42 148.21,327.38 148.74,327.35 149.28,327.31 149.81,327.27 150.34,327.23 150.87,327.19 151.4,327.15 151.93,327.11 152.46,327.07 152.99,327.03 153.53,326.98 154.06,326.94 154.59,326.9 155.12,326.85 155.65,326.8 156.18,326.76 156.71,326.71 157.24,326.66 157.78,326.61 158.31,326.56 158.84,326.51 159.37,326.46 159.9,326.41 160.43,326.36 160.96,326.31 161.49,326.25 162.03,326.2 162.56,326.14 163.09,326.08 163.62,326.03 164.15,325.97 164.68,325.91 165.21,325.85 165.74,325.79 166.28,325.73 166.81,325.67 167.34,325.6 167.87,325.54 168.4,325.47 168.93,325.41 169.46,325.34 169.99,325.27 170.53,325.21 171.06,325.14 171.59,325.07 172.12,325 172.65,324.93 173.18,324.85 173.71,324.78 174.24,324.71 174.78,324.63 175.31,324.56 175.84,324.48 176.37,324.4 176.9,324.32 177.43,324.24 177.96,324.16 178.49,324.08 179.02,324 179.56,323.92 180.09,323.84 180.62,323.75 181.15,323.67 181.68,323.58 182.21,323.5 182.74,323.41 183.27,323.32 183.81,323.23 184.34,323.14 184.87,323.05 185.4,322.96 185.93,322.87 186.46,322.77 186.99,322.68 187.52,322.59 188.06,322.49 188.59,322.39 189.12,322.3 189.65,322.2 190.18,322.1 190.71,322 191.24,321.9 191.77,321.8 192.31,321.7 192.84,321.6 193.37,321.5 193.9,321.4 194.43,321.29 194.96,321.19 195.49,321.08 196.02,320.98 196.56,320.87 197.09,320.77 197.62,320.66 198.15,320.55 198.68,320.45 199.21,320.34 199.74,320.23 200.27,320.12 200.81,320.01 201.34,319.9 201.87,319.79 202.4,319.68 202.93,319.56 203.46,319.45 203.99,319.34 204.52,319.23 205.06,319.11 205.59,319 206.12,318.89 206.65,318.77 207.18,318.66 207.71,318.55 208.24,318.43 208.77,318.32 209.31,318.2 209.84,318.09 210.37,317.97 210.9,317.86 211.43,317.74 211.96,317.63 212.49,317.51 213.02,317.4 213.56,317.28 214.09,317.17 214.62,317.05 215.15,316.94 215.68,316.82 216.21,316.71 216.74,316.59 217.27,316.48 217.81,316.36 218.34,316.25 218.87,316.14 219.4,316.02 219.93,315.91 220.46,315.8 220.99,315.68 221.52,315.57 222.06,315.46 222.59,315.35 223.12,315.24 223.65,315.13 224.18,315.02 224.71,314.91 225.24,314.8 225.77,314.69 226.31,314.59 226.84,314.48 227.37,314.37 227.9,314.27 228.43,314.17 228.96,314.06 229.49,313.96 230.02,313.86 230.56,313.76 231.09,313.65 231.62,313.56 232.15,313.46 232.68,313.36 233.21,313.26 233.74,313.17 234.27,313.07 234.81,312.98 235.34,312.89 235.87,312.79 236.4,312.7 236.93,312.61 237.46,312.53 237.99,312.44 238.52,312.35 239.06,312.27 239.59,312.19 240.12,312.1 240.65,312.02 241.18,311.94 241.71,311.87 242.24,311.79 242.77,311.71 243.31,311.64 243.84,311.57 244.37,311.5 244.9,311.43 245.43,311.36 245.96,311.29 246.49,311.23 247.02,311.17 247.56,311.1 248.09,311.04 248.62,310.99 249.15,310.93 249.68,310.87 250.21,310.82 250.74,310.77 251.27,310.72 251.81,310.67 252.34,310.62 252.87,310.58 253.4,310.53 253.93,310.49 254.46,310.45 254.99,310.41 255.52,310.38 256.06,310.34 256.59,310.31 257.12,310.28 257.65,310.25 258.18,310.22 258.71,310.2 259.24,310.17 259.77,310.15 260.31,310.13 260.84,310.11 261.37,310.1 261.9,310.08 262.43,310.07 262.96,310.06 263.49,310.05 264.02,310.05 264.56,310.04 265.09,310.04 265.62,310.04 266.15,310.04 266.68,310.04 267.21,310.05 267.74,310.05 268.27,310.06 268.81,310.07 269.34,310.08 269.87,310.1 270.4,310.11 270.93,310.13 271.46,310.15 271.99,310.17 272.52,310.2 273.06,310.22 273.59,310.25 274.12,310.28 274.65,310.31 275.18,310.34 275.71,310.38 276.24,310.41 276.77,310.45 277.31,310.49 277.84,310.53 278.37,310.58 278.9,310.62 279.43,310.67 279.96,310.72 280.49,310.77 281.02,310.82 281.56,310.87 282.09,310.93 282.62,310.99 283.15,311.04 283.68,311.1 284.21,311.17 284.74,311.23 285.27,311.29 285.81,311.36 286.34,311.43 286.87,311.5 287.4,311.57 287.93,311.64 288.46,311.71 288.99,311.79 289.52,311.87 290.06,311.94 290.59,312.02 291.12,312.1 291.65,312.19 292.18,312.27 292.71,312.35 293.24,312.44 293.77,312.53 294.31,312.61 294.84,312.7 295.37,312.79 295.9,312.89 296.43,312.98 296.96,313.07 297.49,313.17 298.02,313.26 298.56,313.36 299.09,313.46 299.62,313.56 300.15,313.65 300.68,313.76 301.21,313.86 301.74,313.96 302.27,314.06 302.81,314.17 303.34,314.27 303.87,314.37 304.4,314.48 304.93,314.59 305.46,314.69 305.99,314.8 306.52,314.91 307.06,315.02 307.59,315.13 308.12,315.24 308.65,315.35 309.18,315.46 309.71,315.57 310.24,315.68 310.77,315.8 311.31,315.91 311.84,316.02 312.37,316.14 312.9,316.25 313.43,316.36 313.96,316.48 314.49,316.59 315.02,316.71 315.56,316.82 316.09,316.94 316.62,317.05 317.15,317.17 317.68,317.28 318.21,317.4 318.74,317.51 319.27,317.63 319.81,317.74 320.34,317.86 320.87,317.97 321.4,318.09 321.93,318.2 322.46,318.32 322.99,318.43 323.52,318.55 324.06,318.66 324.59,318.77 325.12,318.89 325.65,319 326.18,319.11 326.71,319.23 327.24,319.34 327.77,319.45 328.31,319.56 328.84,319.68 329.37,319.79 329.9,319.9 330.43,320.01 330.96,320.12 331.49,320.23 332.02,320.34 332.56,320.45 333.09,320.55 333.62,320.66 334.15,320.77 334.68,320.87 335.21,320.98 335.74,321.08 336.27,321.19 336.81,321.29 337.34,321.4 337.87,321.5 338.4,321.6 338.93,321.7 339.46,321.8 339.99,321.9 340.52,322 341.06,322.1 341.59,322.2 342.12,322.3 342.65,322.39 343.18,322.49 343.71,322.59 344.24,322.68 344.77,322.77 345.3,322.87 345.84,322.96 346.37,323.05 346.9,323.14 347.43,323.23 347.96,323.32 348.49,323.41 349.02,323.5 349.55,323.58 350.09,323.67 350.62,323.75 351.15,323.84 351.68,323.92 352.21,324 352.74,324.08 353.27,324.16 353.8,324.24 354.34,324.32 354.87,324.4 355.4,324.48 355.93,324.56 356.46,324.63 356.99,324.71 357.52,324.78 358.05,324.85 358.59,324.93 359.12,325 359.65,325.07 360.18,325.14 360.71,325.21 361.24,325.27 361.77,325.34 362.3,325.41 362.84,325.47 363.37,325.54 363.9,325.6 364.43,325.67 364.96,325.73 365.49,325.79 366.02,325.85 366.55,325.91 367.09,325.97 367.62,326.03 368.15,326.08 368.68,326.14 369.21,326.2 369.74,326.25 370.27,326.31 370.8,326.36 371.34,326.41 371.87,326.46 372.4,326.51 372.93,326.56 373.46,326.61 373.99,326.66 374.52,326.71 375.05,326.76 375.59,326.8 376.12,326.85 376.65,326.9 377.18,326.94 377.71,326.98 378.24,327.03 378.77,327.07 379.3,327.11 379.84,327.15 380.37,327.19 380.9,327.23 381.43,327.27 381.96,327.31 382.49,327.35 383.02,327.38 383.55,327.42 384.09,327.45 384.62,327.49 385.15,327.52 385.68,327.56 386.21,327.59 386.74,327.62 387.27,327.65 387.8,327.69 388.34,327.72 388.87,327.75 389.4,327.78 389.93,327.8 390.46,327.83 390.99,327.86 391.52,327.89 392.05,327.92 392.59,327.94 393.12,327.97 393.65,327.99 394.18,328.02 394.71,328.04 395.24,328.07 395.77,328.09 396.3,328.11 396.84,328.14 397.37,328.16 397.9,328.18 398.43,328.2 398.96,328.22 399.49,328.24 400.02,328.26 400.55,328.28 401.09,328.3 401.62,328.32 402.15,328.34 402.68,328.35 403.21,328.37 403.74,328.39 404.27,328.4 404.8,328.42 405.34,328.44 405.87,328.45 406.4,328.47 406.93,328.48 407.46,328.5 407.99,328.51 408.52,328.52 409.05,328.54 409.59,328.55 410.12,328.56 410.65,328.58 411.18,328.59 411.71,328.6 412.24,328.61 412.77,328.62 413.3,328.64 413.84,328.65 414.37,328.66 414.9,328.67 415.43,328.68 415.96,328.69 416.49,328.7 417.02,328.71 417.55,328.72 418.09,328.73 418.62,328.73 419.15,328.74 419.68,328.75 420.21,328.76 420.74,328.77 421.27,328.77 421.8,328.78 422.34,328.79 422.87,328.8 423.4,328.8 423.93,328.81 424.46,328.82 424.99,328.82 425.52,328.83 426.05,328.84 426.59,328.84 427.12,328.85 427.65,328.85 428.18,328.86 428.71,328.86 429.24,328.87 429.77,328.87 430.3,328.88 430.84,328.88 431.37,328.89 431.9,328.89 432.43,328.9 432.96,328.9 433.49,328.91 434.02,328.91 434.55,328.91 435.09,328.92 435.62,328.92 436.15,328.92 436.68,328.93 437.21,328.93 437.74,328.93 438.27,328.94 438.8,328.94 439.34,328.94 439.87,328.95 440.4,328.95 440.93,328.95 441.46,328.95 441.99,328.96 442.52,328.96 443.05,328.96 443.59,328.96 444.12,328.97 444.65,328.97 445.18,328.97 445.71,328.97 446.24,328.98 446.77,328.98 447.3,328.98 447.84,328.98 448.37,328.98 448.9,328.98 449.43,328.99 449.96,328.99 450.49,328.99 451.02,328.99 451.55,328.99 452.09,328.99 452.62,329 453.15,329 453.68,329 454.21,329 454.74,329 455.27,329 455.8,329 456.34,329 456.87,329.01 457.4,329.01 457.93,329.01 458.46,329.01 458.99,329.01 459.52,329.01 460.05,329.01 460.59,329.01 461.12,329.01 461.65,329.01 462.18,329.01 462.71,329.01 463.24,329.02 463.77,329.02 464.3,329.02 464.84,329.02 465.37,329.02 465.9,329.02 466.43,329.02 466.96,329.02 467.49,329.02 468.02,329.02 468.55,329.02 469.09,329.02 469.62,329.02 470.15,329.02 470.68,329.02 471.21,329.02 471.74,329.02 472.27,329.02 472.8,329.02 473.34,329.03 473.87,329.03 474.4,329.03 474.93,329.03 475.46,329.03 475.99,329.03 476.52,329.03 477.05,329.03 477.59,329.03 478.12,329.03 478.65,329.03 479.18,329.03 479.71,329.03 480.24,329.03 480.77,329.03 481.3,329.03 481.84,329.03 482.37,329.03 482.9,329.03 483.43,329.03 483.96,329.03 484.49,329.03 485.02,329.03 485.55,329.03 486.09,329.03 486.62,329.03 487.15,329.03 487.68,329.03 488.21,329.03 488.74,329.03 489.27,329.03 489.8,329.03 490.34,329.03 490.87,329.03 491.4,329.03 491.93,329.03 492.46,329.03 492.99,329.03 493.52,329.03 494.05,329.03 494.59,329.03 495.12,329.03 495.65,329.03 496.18,329.03 496.71,329.03 497.24,329.03 497.77,329.03 498.3,329.03 498.84,329.03 499.37,329.03 499.9,329.03 500.43,329.03 500.96,329.03 501.49,329.03 502.02,329.03 502.55,329.03 503.09,329.03 503.62,329.03 504.15,329.03 504.68,329.03 505.21,329.03 505.74,329.03 506.27,329.03 506.8,329.03 507.34,329.03 507.87,329.03 508.4,329.03 508.93,329.03 509.46,329.03 509.99,329.03 510.52,329.03 511.05,329.03 511.59,329.03 512.12,329.03 512.65,329.03 513.18,329.03 513.71,329.03 514.24,329.03 514.77,329.03 515.3,329.03 515.83,329.03 516.37,329.03 516.9,329.03 517.43,329.03 517.96,329.03 518.49,329.03 519.02,329.03 519.55,329.03 520.08,329.03 520.62,329.03 521.15,329.03 521.68,329.03 522.21,329.03 522.74,329.03 523.27,329.03 523.8,329.03 524.33,329.03 524.87,329.03 525.4,329.03 525.93,329.03 526.46,329.03 526.99,329.03 527.52,329.03 528.05,329.03 528.58,329.03 529.12,329.03 529.65,329.03 530.18,329.03 530.71,329.03 531.24,329.03 531.77,329.03 532.3,329.03 532.49,329.03"/>
</g>
<g fill="none" stroke-width="1.25">
<polyline fill="none" points="-1.25,126.67 -1.06,126.67 -0.53,126.67 0,126.67 0.53,126.67 1.06,126.67 1.59,126.67 2.12,126.66 2.65,126.66 3.18,126.66 3.71,126.66 4.25,126.66 4.78,126.66 5.31,126.65 5.84,126.65 6.37,126.65 6.9,126.65 7.43,126.65 7.96,126.64 8.49,126.64 9.03,126.64 9.56,126.64 10.09,126.63 10.62,126.63 11.15,126.63 11.68,126.63 12.21,126.62 12.74,126.62 13.28,126.62 13.81,126.61 14.34,126.61 14.87,126.61 15.4,126.6 15.93,126.6 16.46,126.59 16.99,126.59 17.53,126.59 18.06,126.58 18.59,126.58 19.12,126.57 19.65,126.57 20.18,126.56 20.71,126.56 21.24,126.55 21.78,126.54 22.31,126.54 22.84,126.53 23.37,126.53 23.9,126.52 24.43,126.51 24.96,126.51 25.49,126.5 26.03,126.49 26.56,126.48 27.09,126.48 27.62,126.47 28.15,126.46 28.68,126.45 29.21,126.44 29.74,126.43 30.28,126.42 30.81,126.41 31.34,126.4 31.87,126.39 32.4,126.38 32.93,126.37 33.46,126.36 33.99,126.35 34.53,126.34 35.06,126.33 35.59,126.31 36.12,126.3 36.65,126.29 37.18,126.27 37.71,126.26 38.24,126.24 38.78,126.23 39.31,126.21 39.84,126.2 40.37,126.18 40.9,126.16 41.43,126.15 41.96,126.13 42.49,126.11 43.03,126.09 43.56,126.07 44.09,126.05 44.62,126.03 45.15,126.01 45.68,125.99 46.21,125.96 46.74,125.94 47.28,125.92 47.81,125.89 48.34,125.87 48.87,125.84 49.4,125.82 49.93,125.79 50.46,125.76 50.99,125.74 51.53,125.71 52.06,125.68 52.59,125.65 53.12,125.62 53.65,125.58 54.18,125.55 54.71,125.52 55.24,125.48 55.78,125.45 56.31,125.41 56.84,125.38 57.37,125.34 57.9,125.3 58.43,125.26 58.96,125.22 59.49,125.18 60.03,125.14 60.56,125.1 61.09,125.05 61.62,125.01 62.15,124.96 62.68,124.92 63.21,124.87 63.74,124.82 64.28,124.77 64.81,124.72 65.34,124.67 65.87,124.61 66.4,124.56 66.93,124.5 67.46,124.45 67.99,124.39 68.53,124.33 69.06,124.27 69.59,124.21 70.12,124.15 70.65,124.09 71.18,124.02 71.71,123.96 72.24,123.89 72.78,123.82 73.31,123.76 73.84,123.68 74.37,123.61 74.9,123.54 75.43,123.47 75.96,123.39 76.49,123.32 77.03,123.24 77.56,123.16 78.09,123.08 78.62,123 79.15,122.92 79.68,122.83 80.21,122.75 80.74,122.66 81.28,122.57 81.81,122.48 82.34,122.39 82.87,122.3 83.4,122.21 83.93,122.12 84.46,122.02 84.99,121.93 85.53,121.83 86.06,121.73 86.59,121.63 87.12,121.53 87.65,121.43 88.18,121.32 88.71,121.22 89.24,121.11 89.78,121.01 90.31,120.9 90.84,120.79 91.37,120.68 91.9,120.57 92.43,120.45 92.96,120.34 93.49,120.23 94.03,120.11 94.56,120 95.09,119.88 95.62,119.76 96.15,119.64 96.68,119.52 97.21,119.4 97.74,119.28 98.28,119.16 98.81,119.04 99.34,118.91 99.87,118.79 100.4,118.66 100.93,118.54 101.46,118.41 101.99,118.29 102.53,118.16 103.06,118.03 103.59,117.91 104.12,117.78 104.65,117.65 105.18,117.52 105.71,117.4 106.24,117.27 106.78,117.14 107.31,117.01 107.84,116.88 108.37,116.76 108.9,116.63 109.43,116.5 109.96,116.38 110.49,116.25 111.03,116.12 111.56,116 112.09,115.87 112.62,115.75 113.15,115.63 113.68,115.51 114.21,115.38 114.74,115.26 115.28,115.14 115.81,115.03 116.34,114.91 116.87,114.79 117.4,114.68 117.93,114.57 118.46,114.46 118.99,114.35 119.53,114.24 120.06,114.13 120.59,114.03 121.12,113.93 121.65,113.83 122.18,113.73 122.71,113.63 123.24,113.54 123.78,113.45 124.31,113.36 124.84,113.27 125.37,113.19 125.9,113.11 126.43,113.03 126.96,112.95 127.49,112.88 128.03,112.81 128.56,112.75 129.09,112.69 129.62,112.63 130.15,112.57 130.68,112.52 131.21,112.47 131.74,112.43 132.28,112.39 132.81,112.35 133.34,112.32 133.87,112.29 134.4,112.26 134.93,112.24 135.46,112.22 135.99,112.21 136.53,112.2 137.06,112.2 137.59,112.2 138.12,112.21 138.65,112.22 139.18,112.23 139.71,112.25 140.24,112.28 140.78,112.31 141.31,112.34 141.84,112.38 142.37,112.43 142.9,112.48 143.43,112.53 143.96,112.6 144.49,112.66 145.03,112.73 145.56,112.81 146.09,112.89 146.62,112.98 147.15,113.07 147.68,113.17 148.21,113.28 148.74,113.38 149.28,113.5 149.81,113.62 150.34,113.75 150.87,113.88 151.4,114.02 151.93,114.16 152.46,114.31 152.99,114.46 153.53,114.62 154.06,114.79 154.59,114.96 155.12,115.13 155.65,115.31 156.18,115.5 156.71,115.69 157.24,115.89 157.78,116.09 158.31,116.3 158.84,116.51 159.37,116.73 159.9,116.95 160.43,117.18 160.96,117.41 161.49,117.65 162.03,117.89 162.56,118.14 163.09,118.39 163.62,118.65 164.15,118.91 164.68,119.17 165.21,119.44 165.74,119.71 166.28,119.99 166.81,120.27 167.34,120.55 167.87,120.84 168.4,121.13 168.93,121.42 169.46,121.71 169.99,122.01 170.53,122.31 171.06,122.62 171.59,122.93 172.12,123.23 172.65,123.54 173.18,123.86 173.71,124.17 174.24,124.49 174.78,124.8 175.31,125.12 175.84,125.44 176.37,125.76 176.9,126.08 177.43,126.4 177.96,126.72 178.49,127.05 179.02,127.37 179.56,127.69 180.09,128.01 180.62,128.33 181.15,128.64 181.68,128.96 182.21,129.28 182.74,129.59 183.27,129.9 183.81,130.21 184.34,130.52 184.87,130.82 185.4,131.12 185.93,131.42 186.46,131.72 186.99,132.01 187.52,132.3 188.06,132.59 188.59,132.87 189.12,133.14 189.65,133.42 190.18,133.68 190.71,133.95 191.24,134.2 191.77,134.46 192.31,134.7 192.84,134.94 193.37,135.18 193.9,135.41 194.43,135.63 194.96,135.85 195.49,136.06 196.02,136.26 196.56,136.46 197.09,136.65 197.62,136.83 198.15,137 198.68,137.17 199.21,137.33 199.74,137.48 200.27,137.62 200.81,137.76 201.34,137.88 201.87,138 202.4,138.11 202.93,138.21 203.46,138.3 203.99,138.39 204.52,138.46 205.06,138.53 205.59,138.58 206.12,138.63 206.65,138.67 207.18,138.7 207.71,138.71 208.24,138.72 208.77,138.72 209.31,138.72 209.84,138.7 210.37,138.67 210.9,138.63 211.43,138.58 211.96,138.53 212.49,138.46 213.02,138.39 213.56,138.3 214.09,138.21 214.62,138.11 215.15,137.99 215.68,137.87 216.21,137.74 216.74,137.6 217.27,137.45 217.81,137.3 218.34,137.13 218.87,136.95 219.4,136.77 219.93,136.58 220.46,136.38 220.99,136.17 221.52,135.96 222.06,135.74 222.59,135.5 223.12,135.27 223.65,135.02 224.18,134.77 224.71,134.51 225.24,134.25 225.77,133.97 226.31,133.7 226.84,133.41 227.37,133.12 227.9,132.83 228.43,132.53 228.96,132.22 229.49,131.91 230.02,131.6 230.56,131.28 231.09,130.96 231.62,130.63 232.15,130.3 232.68,129.97 233.21,129.64 233.74,129.3 234.27,128.96 234.81,128.62 235.34,128.27 235.87,127.93 236.4,127.58 236.93,127.24 237.46,126.89 237.99,126.54 238.52,126.19 239.06,125.85 239.59,125.5 240.12,125.16 240.65,124.81 241.18,124.47 241.71,124.13 242.24,123.79 242.77,123.46 243.31,123.12 243.84,122.8 244.37,122.47 244.9,122.15 245.43,121.83 245.96,121.52 246.49,121.21 247.02,120.9 247.56,120.6 248.09,120.31 248.62,120.02 249.15,119.74 249.68,119.46 250.21,119.2 250.74,118.93 251.27,118.68 251.81,118.43 252.34,118.19 252.87,117.95 253.4,117.73 253.93,117.51 254.46,117.3 254.99,117.1 255.52,116.91 256.06,116.72 256.59,116.55 257.12,116.38 257.65,116.23 258.18,116.08 258.71,115.94 259.24,115.81 259.77,115.7 260.31,115.59 260.84,115.49 261.37,115.4 261.9,115.32 262.43,115.26 262.96,115.2 263.49,115.15 264.02,115.12 264.56,115.09 265.09,115.07 265.62,115.07 266.15,115.07 266.68,115.09 267.21,115.12 267.74,115.15 268.27,115.2 268.81,115.26 269.34,115.32 269.87,115.4 270.4,115.49 270.93,115.59 271.46,115.7 271.99,115.81 272.52,115.94 273.06,116.08 273.59,116.23 274.12,116.38 274.65,116.55 275.18,116.72 275.71,116.91 276.24,117.1 276.77,117.3 277.31,117.51 277.84,117.73 278.37,117.95 278.9,118.19 279.43,118.43 279.96,118.68 280.49,118.93 281.02,119.2 281.56,119.46 282.09,119.74 282.62,120.02 283.15,120.31 283.68,120.6 284.21,120.9 284.74,121.21 285.27,121.52 285.81,121.83 286.34,122.15 286.87,122.47 287.4,122.8 287.93,123.12 288.46,123.46 288.99,123.79 289.52,124.13 290.06,124.47 290.59,124.81 291.12,125.16 291.65,125.5 292.18,125.85 292.71,126.19 293.24,126.54 293.77,126.89 294.31,127.24 294.84,127.58 295.37,127.93 295.9,128.27 296.43,128.62 296.96,128.96 297.49,129.3 298.02,129.64 298.56,129.97 299.09,130.3 299.62,130.63 300.15,130.96 300.68,131.28 301.21,131.6 301.74,131.91 302.27,132.22 302.81,132.53 303.34,132.83 303.87,133.12 304.4,133.41 304.93,133.7 305.46,133.97 305.99,134.25 306.52,134.51 307.06,134.77 307.59,135.02 308.12,135.27 308.65,135.5 309.18,135.74 309.71,135.96 310.24,136.17 310.77,136.38 311.31,136.58 311.84,136.77 312.37,136.95 312.9,137.13 313.43,137.3 313.96,137.45 314.49,137.6 315.02,137.74 315.56,137.87 316.09,137.99 316.62,138.11 317.15,138.21 317.68,138.3 318.21,138.39 318.74,138.46 319.27,138.53 319.81,138.58 320.34,138.63 320.87,138.67 321.4,138.7 321.93,138.72 322.46,138.72 322.99,138.72 323.52,138.71 324.06,138.7 324.59,138.67 325.12,138.63 325.65,138.58 326.18,138.53 326.71,138.46 327.24,138.39 327.77,138.3 328.31,138.21 328.84,138.11 329.37,138 329.9,137.88 330.43,137.76 330.96,137.62 331.49,137.48 332.02,137.33 332.56,137.17 333.09,137 333.62,136.83 334.15,136.65 334.68,136.46 335.21,136.26 335.74,136.06 336.27,135.85 336.81,135.63 337.34,135.41 337.87,135.18 338.4,134.94 338.93,134.7 339.46,134.46 339.99,134.2 340.52,133.95 341.06,133.68 341.59,133.42 342.12,133.14 342.65,132.87 343.18,132.59 343.71,132.3 344.24,132.01 344.77,131.72 345.3,131.42 345.84,131.12 346.37,130.82 346.9,130.52 347.43,130.21 347.96,129.9 348.49,129.59 349.02,129.28 349.55,128.96 350.09,128.64 350.62,128.33 351.15,128.01 351.68,127.69 352.21,127.37 352.74,127.05 353.27,126.72 353.8,126.4 354.34,126.08 354.87,125.76 355.4,125.44 355.93,125.12 356.46,124.8 356.99,124.49 357.52,124.17 358.05,123.86 358.59,123.54 359.12,123.23 359.65,122.93 360.18,122.62 360.71,122.31 361.24,122.01 361.77,121.71 362.3,121.42 362.84,121.13 363.37,120.84 363.9,120.55 364.43,120.27 364.96,119.99 365.49,119.71 366.02,119.44 366.55,119.17 367.09,118.91 367.62,118.65 368.15,118.39 368.68,118.14 369.21,117.89 369.74,117.65 370.27,117.41 370.8,117.18 371.34,116.95 371.87,116.73 372.4,116.51 372.93,116.3 373.46,116.09 373.99,115.89 374.52,115.69 375.05,115.5 375.59,115.31 376.12,115.13 376.65,114.96 377.18,114.79 377.71,114.62 378.24,114.46 378.77,114.31 379.3,114.16 379.84,114.02 380.37,113.88 380.9,113.75 381.43,113.62 381.96,113.5 382.49,113.38 383.02,113.28 383.55,113.17 384.09,113.07 384.62,112.98 385.15,112.89 385.68,112.81 386.21,112.73 386.74,112.66 387.27,112.6 387.8,112.53 388.34,112.48 388.87,112.43 389.4,112.38 389.93,112.34 390.46,112.31 390.99,112.28 391.52,112.25 392.05,112.23 392.59,112.22 393.12,112.21 393.65,112.2 394.18,112.2 394.71,112.2 395.24,112.21 395.77,112.22 396.3,112.24 396.84,112.26 397.37,112.29 397.9,112.32 398.43,112.35 398.96,112.39 399.49,112.43 400.02,112.47 400.55,112.52 401.09,112.57 401.62,112.63 402.15,112.69 402.68,112.75 403.21,112.81 403.74,112.88 404.27,112.95 404.8,113.03 405.34,113.11 405.87,113.19 406.4,113.27 406.93,113.36 407.46,113.45 407.99,113.54 408.52,113.63 409.05,113.73 409.59,113.83 410.12,113.93 410.65,114.03 411.18,114.13 411.71,114.24 412.24,114.35 412.77,114.46 413.3,114.57 413.84,114.68 414.37,114.79 414.9,114.91 415.43,115.03 415.96,115.14 416.49,115.26 417.02,115.38 417.55,115.51 418.09,115.63 418.62,115.75 419.15,115.87 419.68,116 420.21,116.12 420.74,116.25 421.27,116.38 421.8,116.5 422.34,116.63 422.87,116.76 423.4,116.88 423.93,117.01 424.46,117.14 424.99,117.27 425.52,117.4 426.05,117.52 426.59,117.65 427.12,117.78 427.65,117.91 428.18,118.03 428.71,118.16 429.24,118.29 429.77,118.41 430.3,118.54 430.84,118.66 431.37,118.79 431.9,118.91 432.43,119.04 432.96,119.16 433.49,119.28 434.02,119.4 434.55,119.52 435.09,119.64 435.62,119.76 436.15,119.88 436.68,120 437.21,120.11 437.74,120.23 438.27,120.34 438.8,120.45 439.34,120.57 439.87,120.68 440.4,120.79 440.93,120.9 441.46,121.01 441.99,121.11 442.52,121.22 443.05,121.32 443.59,121.43 444.12,121.53 444.65,121.63 445.18,121.73 445.71,121.83 446.24,121.93 446.77,122.02 447.3,122.12 447.84,122.21 448.37,122.3 448.9,122.39 449.43,122.48 449.96,122.57 450.49,122.66 451.02,122.75 451.55,122.83 452.09,122.92 452.62,123 453.15,123.08 453.68,123.16 454.21,123.24 454.74,123.32 455.27,123.39 455.8,123.47 456.34,123.54 456.87,123.61 457.4,123.68 457.93,123.76 458.46,123.82 458.99,123.89 459.52,123.96 460.05,124.02 460.59,124.09 461.12,124.15 461.65,124.21 462.18,124.27 462.71,124.33 463.24,124.39 463.77,124.45 464.3,124.5 464.84,124.56 465.37,124.61 465.9,124.67 466.43,124.72 466.96,124.77 467.49,124.82 468.02,124.87 468.55,124.92 469.09,124.96 469.62,125.01 470.15,125.05 470.68,125.1 471.21,125.14 471.74,125.18 472.27,125.22 472.8,125.26 473.34,125.3 473.87,125.34 474.4,125.38 474.93,125.41 475.46,125.45 475.99,125.48 476.52,125.52 477.05,125.55 477.59,125.58 478.12,125.62 478.65,125.65 479.18,125.68 479.71,125.71 480.24,125.74 480.77,125.76 481.3,125.79 481.84,125.82 482.37,125.84 482.9,125.87 483.43,125.89 483.96,125.92 484.49,125.94 485.02,125.96 485.55,125.99 486.09,126.01 486.62,126.03 487.15,126.05 487.68,126.07 488.21,126.09 488.74,126.11 489.27,126.13 489.8,126.15 490.34,126.16 490.87,126.18 491.4,126.2 491.93,126.21 492.46,126.23 492.99,126.24 493.52,126.26 494.05,126.27 494.59,126.29 495.12,126.3 495.65,126.31 496.18,126.33 496.71,126.34 497.24,126.35 497.77,126.36 498.3,126.37 498.84,126.38 499.37,126.39 499.9,126.4 500.43,126.41 500.96,126.42 501.49,126.43 502.02,126.44 502.55,126.45 503.09,126.46 503.62,126.47 504.15,126.48 504.68,126.48 505.21,126.49 505.74,126.5 506.27,126.51 506.8,126.51 507.34,126.52 507.87,126.53 508.4,126.53 508.93,126.54 509.46,126.54 509.99,126.55 510.52,126.56 511.05,126.56 511.59,126.57 512.12,126.57 512.65,126.58 513.18,126.58 513.71,126.59 514.24,126.59 514.77,126.59 515.3,126.6 515.83,126.6 516.37,126.61 516.9,126.61 517.43,126.61 517.96,126.62 518.49,126.62 519.02,126.62 519.55,126.63 520.08,126.63 520.62,126.63 521.15,126.63 521.68,126.64 522.21,126.64 522.74,126.64 523.27,126.64 523.8,126.65 524.33,126.65 524.87,126.65 525.4,126.65 525.93,126.65 526.46,126.66 526.99,126.66 527.52,126.66 528.05,126.66 528.58,126.66 529.12,126.66 529.65,126.67 530.18,126.67 530.71,126.67 531.24,126.67 531.77,126.67 532.3,126.67 532.49,126.67"/>
</g>
<g fill="none" stroke-width="1.25">
<polyline fill="none" points="-1.25,177.29 -1.06,177.29 -0.53,177.29 0,177.3 0.53,177.3 1.06,177.3 1.59,177.3 2.12,177.3 2.65,177.3 3.18,177.3 3.71,177.3 4.25,177.3 4.78,177.3 5.31,177.3 5.84,177.3 6.37,177.3 6.9,177.3 7.43,177.3 7.96,177.3 8.49,177.3 9.03,177.31 9.56,177.31 10.09,177.31 10.62,177.31 11.15,177.31 11.68,177.31 12.21,177.31 12.74,177.31 13.28,177.31 13.81,177.31 14.34,177.32 14.87,177.32 15.4,177.32 15.93,177.32 16.46,177.32 16.99,177.32 17.53,177.32 18.06,177.33 18.59,177.33 19.12,177.33 19.65,177.33 20.18,177.33 20.71,177.33 21.24,177.34 21.78,177.34 22.31,177.34 22.84,177.34 23.37,177.34 23.9,177.35 24.43,177.35 24.96,177.35 25.49,177.35 26.03,177.36 26.56,177.36 27.09,177.36 27.62,177.37 28.15,177.37 28.68,177.37 29.21,177.37 29.74,177.38 30.28,177.38 30.81,177.39 31.34,177.39 31.87,177.39 32.4,177.4 32.93,177.4 33.46,177.41 33.99,177.41 34.53,177.41 35.06,177.42 35.59,177.42 36.12,177.43 36.65,177.43 37.18,177.44 37.71,177.45 38.24,177.45 38.78,177.46 39.31,177.46 39.84,177.47 40.37,177.48 40.9,177.48 41.43,177.49 41.96,177.5 42.49,177.51 43.03,177.51 43.56,177.52 44.09,177.53 44.62,177.54 45.15,177.55 45.68,177.55 46.21,177.56 46.74,177.57 47.28,177.58 47.81,177.59 48.34,177.6 48.87,177.61 49.4,177.63 49.93,177.64 50.46,177.65 50.99,177.66 51.53,177.67 52.06,177.69 52.59,177.7 53.12,177.71 53.65,177.73 54.18,177.74 54.71,177.75 55.24,177.77 55.78,177.79 56.31,177.8 56.84,177.82 57.37,177.83 57.9,177.85 58.43,177.87 58.96,177.89 59.49,177.91 60.03,177.93 60.56,177.95 61.09,177.97 61.62,177.99 62.15,178.01 62.68,178.03 63.21,178.05 63.74,178.07 64.28,178.1 64.81,178.12 65.34,178.15 65.87,178.17 66.4,178.2 66.93,178.23 67.46,178.25 67.99,178.28 68.53,178.31 69.06,178.34 69.59,178.37 70.12,178.4 70.65,178.43 71.18,178.46 71.71,178.5 72.24,178.53 72.78,178.56 73.31,178.6 73.84,178.64 74.37,178.67 74.9,178.71 75.43,178.75 75.96,178.79 76.49,178.83 77.03,178.87 77.56,178.91 78.09,178.96 78.62,179 79.15,179.05 79.68,179.09 80.21,179.14 80.74,179.19 81.28,179.23 81.81,179.28 82.34,179.33 82.87,179.39 83.4,179.44 83.93,179.49 84.46,179.55 84.99,179.6 85.53,179.66 86.06,179.72 86.59,179.78 87.12,179.84 87.65,179.9 88.18,179.96 88.71,180.02 89.24,180.09 89.78,180.15 90.31,180.22 90.84,180.29 91.37,180.36 91.9,180.43 92.43,180.5 92.96,180.57 93.49,180.65 94.03,180.72 94.56,180.8 95.09,180.87 95.62,180.95 96.15,181.03 96.68,181.11 97.21,181.19 97.74,181.28 98.28,181.36 98.81,181.45 99.34,181.53 99.87,181.62 100.4,181.71 100.93,181.8 101.46,181.89 101.99,181.99 102.53,182.08 103.06,182.17 103.59,182.27 104.12,182.37 104.65,182.47 105.18,182.57 105.71,182.67 106.24,182.77 106.78,182.87 107.31,182.98 107.84,183.08 108.37,183.19 108.9,183.29 109.43,183.4 109.96,183.51 110.49,183.62 111.03,183.73 111.56,183.84 112.09,183.96 112.62,184.07 113.15,184.19 113.68,184.3 114.21,184.42 114.74,184.54 115.28,184.65 115.81,184.77 116.34,184.89 116.87,185.01 117.4,185.13 117.93,185.25 118.46,185.38 118.99,185.5 119.53,185.62 120.06,185.75 120.59,185.87 121.12,185.99 121.65,186.12 122.18,186.24 122.71,186.37 123.24,186.49 123.78,186.62 124.31,186.75 124.84,186.87 125.37,187 125.9,187.12 126.43,187.25 126.96,187.37 127.49,187.5 128.03,187.62 128.56,187.75 129.09,187.87 129.62,188 130.15,188.12 130.68,188.24 131.21,188.37 131.74,188.49 132.28,188.61 132.81,188.73 133.34,188.85 133.87,188.97 134.4,189.09 134.93,189.2 135.46,189.32 135.99,189.43 136.53,189.54 137.06,189.66 137.59,189.77 138.12,189.87 138.65,189.98 139.18,190.09 139.71,190.19 140.24,190.29 140.78,190.39 141.31,190.49 141.84,190.59 142.37,190.68 142.9,190.77 143.43,190.86 143.96,190.95 144.49,191.03 145.03,191.12 145.56,191.2 146.09,191.27 146.62,191.35 147.15,191.42 147.68,191.49 148.21,191.56 148.74,191.62 149.28,191.68 149.81,191.73 150.34,191.79 150.87,191.84 151.4,191.88 151.93,191.93 152.46,191.97 152.99,192 153.53,192.04 154.06,192.06 154.59,192.09 155.12,192.11 155.65,192.13 156.18,192.14 156.71,192.15 157.24,192.15 157.78,192.15 158.31,192.15 158.84,192.14 159.37,192.13 159.9,192.11 160.43,192.09 160.96,192.06 161.49,192.03 162.03,192 162.56,191.96 163.09,191.91 163.62,191.86 164.15,191.81 164.68,191.75 165.21,191.69 165.74,191.62 166.28,191.54 166.81,191.46 167.34,191.38 167.87,191.29 168.4,191.2 168.93,191.1 169.46,190.99 169.99,190.88 170.53,190.77 171.06,190.65 171.59,190.52 172.12,190.39 172.65,190.26 173.18,190.12 173.71,189.97 174.24,189.82 174.78,189.67 175.31,189.51 175.84,189.34 176.37,189.17 176.9,188.99 177.43,188.81 177.96,188.63 178.49,188.44 179.02,188.24 179.56,188.04 180.09,187.84 180.62,187.63 181.15,187.42 181.68,187.2 182.21,186.97 182.74,186.75 183.27,186.52 183.81,186.28 184.34,186.04 184.87,185.8 185.4,185.55 185.93,185.3 186.46,185.04 186.99,184.78 187.52,184.52 188.06,184.25 188.59,183.98 189.12,183.71 189.65,183.43 190.18,183.15 190.71,182.87 191.24,182.59 191.77,182.3 192.31,182.01 192.84,181.72 193.37,181.42 193.9,181.12 194.43,180.83 194.96,180.52 195.49,180.22 196.02,179.92 196.56,179.61 197.09,179.31 197.62,179 198.15,178.69 198.68,178.38 199.21,178.07 199.74,177.76 200.27,177.45 200.81,177.14 201.34,176.83 201.87,176.52 202.4,176.21 202.93,175.9 203.46,175.59 203.99,175.28 204.52,174.97 205.06,174.67 205.59,174.36 206.12,174.06 206.65,173.76 207.18,173.46 207.71,173.17 208.24,172.87 208.77,172.58 209.31,172.3 209.84,172.01 210.37,171.73 210.9,171.45 211.43,171.17 211.96,170.9 212.49,170.63 213.02,170.37 213.56,170.11 214.09,169.85 214.62,169.6 215.15,169.36 215.68,169.11 216.21,168.88 216.74,168.65 217.27,168.42 217.81,168.2 218.34,167.98 218.87,167.78 219.4,167.57 219.93,167.37 220.46,167.18 220.99,167 221.52,166.82 222.06,166.65 222.59,166.48 223.12,166.33 223.65,166.18 224.18,166.03 224.71,165.89 225.24,165.77 225.77,165.64 226.31,165.53 226.84,165.42 227.37,165.32 227.9,165.23 228.43,165.15 228.96,165.07 229.49,165 230.02,164.94 230.56,164.89 231.09,164.85 231.62,164.81 232.15,164.78 232.68,164.77 233.21,164.76 233.74,164.75 234.27,164.76 234.81,164.77 235.34,164.8 235.87,164.83 236.4,164.87 236.93,164.91 237.46,164.97 237.99,165.03 238.52,165.11 239.06,165.19 239.59,165.28 240.12,165.37 240.65,165.48 241.18,165.59 241.71,165.71 242.24,165.84 242.77,165.98 243.31,166.12 243.84,166.27 244.37,166.43 244.9,166.6 245.43,166.77 245.96,166.95 246.49,167.14 247.02,167.34 247.56,167.54 248.09,167.75 248.62,167.96 249.15,168.19 249.68,168.41 250.21,168.65 250.74,168.89 251.27,169.14 251.81,169.39 252.34,169.64 252.87,169.91 253.4,170.17 253.93,170.45 254.46,170.72 254.99,171.01 255.52,171.29 256.06,171.58 256.59,171.88 257.12,172.18 257.65,172.48 258.18,172.78 258.71,173.09 259.24,173.4 259.77,173.72 260.31,174.03 260.84,174.35 261.37,174.67 261.9,175 262.43,175.32 262.96,175.64 263.49,175.97 264.02,176.3 264.56,176.63 265.09,176.96 265.62,177.29 266.15,177.61 266.68,177.94 267.21,178.27 267.74,178.6 268.27,178.93 268.81,179.25 269.34,179.58 269.87,179.9 270.4,180.22 270.93,180.54 271.46,180.85 271.99,181.17 272.52,181.48 273.06,181.79 273.59,182.09 274.12,182.39 274.65,182.69 275.18,182.99 275.71,183.28 276.24,183.56 276.77,183.85 277.31,184.12 277.84,184.4 278.37,184.66 278.9,184.93 279.43,185.18 279.96,185.44 280.49,185.68 281.02,185.92 281.56,186.16 282.09,186.38 282.62,186.61 283.15,186.82 283.68,187.03 284.21,187.23 284.74,187.43 285.27,187.62 285.81,187.8 286.34,187.97 286.87,188.14 287.4,188.3 287.93,188.45 288.46,188.59 288.99,188.73 289.52,188.86 290.06,188.98 290.59,189.09 291.12,189.2 291.65,189.3 292.18,189.38 292.71,189.46 293.24,189.54 293.77,189.6 294.31,189.66 294.84,189.7 295.37,189.74 295.9,189.78 296.43,189.8 296.96,189.81 297.49,189.82 298.02,189.82 298.56,189.8 299.09,189.79 299.62,189.76 300.15,189.72 300.68,189.68 301.21,189.63 301.74,189.57 302.27,189.5 302.81,189.42 303.34,189.34 303.87,189.25 304.4,189.15 304.93,189.04 305.46,188.93 305.99,188.81 306.52,188.68 307.06,188.54 307.59,188.4 308.12,188.24 308.65,188.09 309.18,187.92 309.71,187.75 310.24,187.57 310.77,187.39 311.31,187.2 311.84,187 312.37,186.8 312.9,186.59 313.43,186.37 313.96,186.15 314.49,185.92 315.02,185.69 315.56,185.46 316.09,185.21 316.62,184.97 317.15,184.72 317.68,184.46 318.21,184.2 318.74,183.94 319.27,183.67 319.81,183.4 320.34,183.12 320.87,182.84 321.4,182.56 321.93,182.28 322.46,181.99 322.99,181.7 323.52,181.4 324.06,181.11 324.59,180.81 325.12,180.51 325.65,180.21 326.18,179.9 326.71,179.6 327.24,179.29 327.77,178.98 328.31,178.67 328.84,178.36 329.37,178.05 329.9,177.74 330.43,177.43 330.96,177.12 331.49,176.81 332.02,176.5 332.56,176.19 333.09,175.88 333.62,175.57 334.15,175.26 334.68,174.96 335.21,174.65 335.74,174.35 336.27,174.05 336.81,173.74 337.34,173.45 337.87,173.15 338.4,172.85 338.93,172.56 339.46,172.27 339.99,171.98 340.52,171.7 341.06,171.42 341.59,171.14 342.12,170.86 342.65,170.59 343.18,170.32 343.71,170.05 344.24,169.79 344.77,169.53 345.3,169.27 345.84,169.02 346.37,168.77 346.9,168.53 347.43,168.29 347.96,168.05 348.49,167.82 349.02,167.6 349.55,167.37 350.09,167.16 350.62,166.94 351.15,166.73 351.68,166.53 352.21,166.33 352.74,166.13 353.27,165.94 353.8,165.76 354.34,165.58 354.87,165.4 355.4,165.23 355.93,165.07 356.46,164.91 356.99,164.75 357.52,164.6 358.05,164.45 358.59,164.31 359.12,164.18 359.65,164.05 360.18,163.92 360.71,163.8 361.24,163.69 361.77,163.58 362.3,163.48 362.84,163.38 363.37,163.28 363.9,163.19 364.43,163.11 364.96,163.03 365.49,162.95 366.02,162.89 366.55,162.82 367.09,162.76 367.62,162.71 368.15,162.66 368.68,162.61 369.21,162.57 369.74,162.54 370.27,162.51 370.8,162.48 371.34,162.46 371.87,162.44 372.4,162.43 372.93,162.42 373.46,162.42 373.99,162.42 374.52,162.42 375.05,162.43 375.59,162.44 376.12,162.46 376.65,162.48 377.18,162.51 377.71,162.53 378.24,162.57 378.77,162.6 379.3,162.64 379.84,162.69 380.37,162.73 380.9,162.78 381.43,162.84 381.96,162.89 382.49,162.95 383.02,163.02 383.55,163.08 384.09,163.15 384.62,163.22 385.15,163.3 385.68,163.37 386.21,163.45 386.74,163.54 387.27,163.62 387.8,163.71 388.34,163.8 388.87,163.89 389.4,163.98 389.93,164.08 390.46,164.18 390.99,164.28 391.52,164.38 392.05,164.48 392.59,164.59 393.12,164.7 393.65,164.8 394.18,164.91 394.71,165.03 395.24,165.14 395.77,165.25 396.3,165.37 396.84,165.48 397.37,165.6 397.9,165.72 398.43,165.84 398.96,165.96 399.49,166.08 400.02,166.2 400.55,166.33 401.09,166.45 401.62,166.57 402.15,166.7 402.68,166.82 403.21,166.95 403.74,167.07 404.27,167.2 404.8,167.32 405.34,167.45 405.87,167.57 406.4,167.7 406.93,167.83 407.46,167.95 407.99,168.08 408.52,168.2 409.05,168.33 409.59,168.45 410.12,168.58 410.65,168.7 411.18,168.83 411.71,168.95 412.24,169.07 412.77,169.19 413.3,169.32 413.84,169.44 414.37,169.56 414.9,169.68 415.43,169.8 415.96,169.92 416.49,170.04 417.02,170.15 417.55,170.27 418.09,170.38 418.62,170.5 419.15,170.61 419.68,170.73 420.21,170.84 420.74,170.95 421.27,171.06 421.8,171.17 422.34,171.28 422.87,171.38 423.4,171.49 423.93,171.6 424.46,171.7 424.99,171.8 425.52,171.9 426.05,172 426.59,172.1 427.12,172.2 427.65,172.3 428.18,172.4 428.71,172.49 429.24,172.59 429.77,172.68 430.3,172.77 430.84,172.86 431.37,172.95 431.9,173.04 432.43,173.12 432.96,173.21 433.49,173.29 434.02,173.38 434.55,173.46 435.09,173.54 435.62,173.62 436.15,173.7 436.68,173.77 437.21,173.85 437.74,173.93 438.27,174 438.8,174.07 439.34,174.14 439.87,174.21 440.4,174.28 440.93,174.35 441.46,174.42 441.99,174.48 442.52,174.55 443.05,174.61 443.59,174.67 444.12,174.73 444.65,174.79 445.18,174.85 445.71,174.91 446.24,174.97 446.77,175.02 447.3,175.08 447.84,175.13 448.37,175.18 448.9,175.24 449.43,175.29 449.96,175.34 450.49,175.39 451.02,175.43 451.55,175.48 452.09,175.53 452.62,175.57 453.15,175.61 453.68,175.66 454.21,175.7 454.74,175.74 455.27,175.78 455.8,175.82 456.34,175.86 456.87,175.9 457.4,175.93 457.93,175.97 458.46,176.01 458.99,176.04 459.52,176.07 460.05,176.11 460.59,176.14 461.12,176.17 461.65,176.2 462.18,176.23 462.71,176.26 463.24,176.29 463.77,176.32 464.3,176.35 464.84,176.37 465.37,176.4 465.9,176.42 466.43,176.45 466.96,176.47 467.49,176.5 468.02,176.52 468.55,176.54 469.09,176.56 469.62,176.58 470.15,176.61 470.68,176.63 471.21,176.65 471.74,176.66 472.27,176.68 472.8,176.7 473.34,176.72 473.87,176.74 474.4,176.75 474.93,176.77 475.46,176.79 475.99,176.8 476.52,176.82 477.05,176.83 477.59,176.84 478.12,176.86 478.65,176.87 479.18,176.89 479.71,176.9 480.24,176.91 480.77,176.92 481.3,176.93 481.84,176.95 482.37,176.96 482.9,176.97 483.43,176.98 483.96,176.99 484.49,177 485.02,177.01 485.55,177.02 486.09,177.02 486.62,177.03 487.15,177.04 487.68,177.05 488.21,177.06 488.74,177.07 489.27,177.07 489.8,177.08 490.34,177.09 490.87,177.09 491.4,177.1 491.93,177.11 492.46,177.11 492.99,177.12 493.52,177.13 494.05,177.13 494.59,177.14 495.12,177.14 495.65,177.15 496.18,177.15 496.71,177.16 497.24,177.16 497.77,177.17 498.3,177.17 498.84,177.17 499.37,177.18 499.9,177.18 500.43,177.19 500.96,177.19 501.49,177.19 502.02,177.2 502.55,177.2 503.09,177.2 503.62,177.21 504.15,177.21 504.68,177.21 505.21,177.21 505.74,177.22 506.27,177.22 506.8,177.22 507.34,177.22 507.87,177.23 508.4,177.23 508.93,177.23 509.46,177.23 509.99,177.23 510.52,177.24 511.05,177.24 511.59,177.24 512.12,177.24 512.65,177.24 513.18,177.25 513.71,177.25 514.24,177.25 514.77,177.25 515.3,177.25 515.83,177.25 516.37,177.25 516.9,177.26 517.43,177.26 517.96,177.26 518.49,177.26 519.02,177.26 519.55,177.26 520.08,177.26 520.62,177.26 521.15,177.26 521.68,177.26 522.21,177.27 522.74,177.27 523.27,177.27 523.8,177.27 524.33,177.27 524.87,177.27 525.4,177.27 525.93,177.27 526.46,177.27 526.99,177.27 527.52,177.27 528.05,177.27 528.58,177.27 529.12,177.27 529.65,177.27 530.18,177.27 530.71,177.28 531.24,177.28 531.77,177.28 532.3,177.28 532.49,177.28"/>
</g>
<g fill="none" stroke-width="1.25">
<polyline fill="none" points="-1.25,227.87 -1.06,227.87 -0.53,227.87 0,227.87 0.53,227.87 1.06,227.87 1.59,227.87 2.12,227.87 2.65,227.87 3.18,227.87 3.71,227.86 4.25,227.86 4.78,227.86 5.31,227.86 5.84,227.86 6.37,227.86 6.9,227.86 7.43,227.86 7.96,227.86 8.49,227.86 9.03,227.86 9.56,227.86 10.09,227.86 10.62,227.86 11.15,227.86 11.68,227.86 12.21,227.86 12.74,227.86 13.28,227.86 13.81,227.86 14.34,227.86 14.87,227.86 15.4,227.86 15.93,227.86 16.46,227.86 16.99,227.86 17.53,227.86 18.06,227.86 18.59,227.86 19.12,227.86 19.65,227.86 20.18,227.86 20.71,227.85 21.24,227.85 21.78,227.85 22.31,227.85 22.84,227.85 23.37,227.85 23.9,227.85 24.43,227.85 24.96,227.85 25.49,227.85 26.03,227.85 26.56,227.85 27.09,227.85 27.62,227.85 28.15,227.84 28.68,227.84 29.21,227.84 29.74,227.84 30.28,227.84 30.81,227.84 31.34,227.84 31.87,227.84 32.4,227.84 32.93,227.83 33.46,227.83 33.99,227.83 34.53,227.83 35.06,227.83 35.59,227.83 36.12,227.83 36.65,227.82 37.18,227.82 37.71,227.82 38.24,227.82 38.78,227.82 39.31,227.81 39.84,227.81 40.37,227.81 40.9,227.81 41.43,227.81 41.96,227.8 42.49,227.8 43.03,227.8 43.56,227.8 44.09,227.79 44.62,227.79 45.15,227.79 45.68,227.78 46.21,227.78 46.74,227.78 47.28,227.77 47.81,227.77 48.34,227.77 48.87,227.76 49.4,227.76 49.93,227.76 50.46,227.75 50.99,227.75 51.53,227.74 52.06,227.74 52.59,227.73 53.12,227.73 53.65,227.72 54.18,227.72 54.71,227.71 55.24,227.71 55.78,227.7 56.31,227.7 56.84,227.69 57.37,227.68 57.9,227.68 58.43,227.67 58.96,227.66 59.49,227.66 60.03,227.65 60.56,227.64 61.09,227.64 61.62,227.63 62.15,227.62 62.68,227.61 63.21,227.6 63.74,227.59 64.28,227.59 64.81,227.58 65.34,227.57 65.87,227.56 66.4,227.55 66.93,227.54 67.46,227.53 67.99,227.51 68.53,227.5 69.06,227.49 69.59,227.48 70.12,227.47 70.65,227.45 71.18,227.44 71.71,227.43 72.24,227.41 72.78,227.4 73.31,227.39 73.84,227.37 74.37,227.35 74.9,227.34 75.43,227.32 75.96,227.31 76.49,227.29 77.03,227.27 77.56,227.25 78.09,227.24 78.62,227.22 79.15,227.2 79.68,227.18 80.21,227.16 80.74,227.14 81.28,227.12 81.81,227.09 82.34,227.07 82.87,227.05 83.4,227.02 83.93,227 84.46,226.98 84.99,226.95 85.53,226.92 86.06,226.9 86.59,226.87 87.12,226.84 87.65,226.82 88.18,226.79 88.71,226.76 89.24,226.73 89.78,226.69 90.31,226.66 90.84,226.63 91.37,226.6 91.9,226.56 92.43,226.53 92.96,226.49 93.49,226.46 94.03,226.42 94.56,226.38 95.09,226.34 95.62,226.3 96.15,226.26 96.68,226.22 97.21,226.18 97.74,226.14 98.28,226.1 98.81,226.05 99.34,226.01 99.87,225.96 100.4,225.91 100.93,225.86 101.46,225.82 101.99,225.77 102.53,225.71 103.06,225.66 103.59,225.61 104.12,225.56 104.65,225.5 105.18,225.45 105.71,225.39 106.24,225.33 106.78,225.27 107.31,225.21 107.84,225.15 108.37,225.09 108.9,225.03 109.43,224.96 109.96,224.9 110.49,224.83 111.03,224.77 111.56,224.7 112.09,224.63 112.62,224.56 113.15,224.49 113.68,224.41 114.21,224.34 114.74,224.27 115.28,224.19 115.81,224.11 116.34,224.03 116.87,223.96 117.4,223.88 117.93,223.79 118.46,223.71 118.99,223.63 119.53,223.54 120.06,223.46 120.59,223.37 121.12,223.28 121.65,223.19 122.18,223.1 122.71,223.01 123.24,222.92 123.78,222.83 124.31,222.73 124.84,222.64 125.37,222.54 125.9,222.44 126.43,222.34 126.96,222.24 127.49,222.14 128.03,222.04 128.56,221.94 129.09,221.83 129.62,221.73 130.15,221.62 130.68,221.52 131.21,221.41 131.74,221.3 132.28,221.19 132.81,221.08 133.34,220.97 133.87,220.86 134.4,220.75 134.93,220.63 135.46,220.52 135.99,220.4 136.53,220.29 137.06,220.17 137.59,220.05 138.12,219.94 138.65,219.82 139.18,219.7 139.71,219.58 140.24,219.46 140.78,219.34 141.31,219.22 141.84,219.1 142.37,218.98 142.9,218.85 143.43,218.73 143.96,218.61 144.49,218.49 145.03,218.36 145.56,218.24 146.09,218.12 146.62,217.99 147.15,217.87 147.68,217.75 148.21,217.62 148.74,217.5 149.28,217.38 149.81,217.25 150.34,217.13 150.87,217.01 151.4,216.89 151.93,216.77 152.46,216.65 152.99,216.53 153.53,216.41 154.06,216.29 154.59,216.17 155.12,216.05 155.65,215.93 156.18,215.82 156.71,215.7 157.24,215.59 157.78,215.48 158.31,215.36 158.84,215.25 159.37,215.14 159.9,215.03 160.43,214.93 160.96,214.82 161.49,214.72 162.03,214.61 162.56,214.51 163.09,214.41 163.62,214.32 164.15,214.22 164.68,214.13 165.21,214.03 165.74,213.94 166.28,213.86 166.81,213.77 167.34,213.69 167.87,213.6 168.4,213.52 168.93,213.45 169.46,213.37 169.99,213.3 170.53,213.23 171.06,213.16 171.59,213.1 172.12,213.04 172.65,212.98 173.18,212.92 173.71,212.87 174.24,212.82 174.78,212.77 175.31,212.73 175.84,212.69 176.37,212.65 176.9,212.62 177.43,212.59 177.96,212.56 178.49,212.54 179.02,212.52 179.56,212.5 180.09,212.49 180.62,212.48 181.15,212.48 181.68,212.47 182.21,212.48 182.74,212.48 183.27,212.49 183.81,212.51 184.34,212.53 184.87,212.55 185.4,212.57 185.93,212.6 186.46,212.64 186.99,212.68 187.52,212.72 188.06,212.77 188.59,212.82 189.12,212.88 189.65,212.94 190.18,213 190.71,213.07 191.24,213.15 191.77,213.23 192.31,213.31 192.84,213.4 193.37,213.49 193.9,213.58 194.43,213.69 194.96,213.79 195.49,213.9 196.02,214.02 196.56,214.14 197.09,214.26 197.62,214.39 198.15,214.52 198.68,214.66 199.21,214.8 199.74,214.95 200.27,215.1 200.81,215.25 201.34,215.41 201.87,215.58 202.4,215.74 202.93,215.92 203.46,216.09 203.99,216.28 204.52,216.46 205.06,216.65 205.59,216.85 206.12,217.04 206.65,217.25 207.18,217.45 207.71,217.66 208.24,217.88 208.77,218.09 209.31,218.32 209.84,218.54 210.37,218.77 210.9,219 211.43,219.24 211.96,219.48 212.49,219.72 213.02,219.97 213.56,220.22 214.09,220.47 214.62,220.72 215.15,220.98 215.68,221.24 216.21,221.51 216.74,221.77 217.27,222.04 217.81,222.31 218.34,222.59 218.87,222.86 219.4,223.14 219.93,223.42 220.46,223.7 220.99,223.99 221.52,224.27 222.06,224.56 222.59,224.85 223.12,225.14 223.65,225.43 224.18,225.72 224.71,226.01 225.24,226.31 225.77,226.6 226.31,226.9 226.84,227.19 227.37,227.49 227.9,227.78 228.43,228.08 228.96,228.37 229.49,228.67 230.02,228.97 230.56,229.26 231.09,229.55 231.62,229.85 232.15,230.14 232.68,230.43 233.21,230.72 233.74,231.01 234.27,231.3 234.81,231.58 235.34,231.87 235.87,232.15 236.4,232.43 236.93,232.71 237.46,232.98 237.99,233.26 238.52,233.53 239.06,233.8 239.59,234.06 240.12,234.32 240.65,234.58 241.18,234.84 241.71,235.09 242.24,235.34 242.77,235.59 243.31,235.83 243.84,236.07 244.37,236.3 244.9,236.53 245.43,236.76 245.96,236.98 246.49,237.2 247.02,237.41 247.56,237.62 248.09,237.82 248.62,238.02 249.15,238.21 249.68,238.4 250.21,238.58 250.74,238.76 251.27,238.93 251.81,239.1 252.34,239.26 252.87,239.42 253.4,239.57 253.93,239.71 254.46,239.85 254.99,239.98 255.52,240.11 256.06,240.23 256.59,240.34 257.12,240.45 257.65,240.55 258.18,240.65 258.71,240.74 259.24,240.82 259.77,240.9 260.31,240.97 260.84,241.03 261.37,241.09 261.9,241.14 262.43,241.18 262.96,241.22 263.49,241.25 264.02,241.27 264.56,241.29 265.09,241.3 265.62,241.3 266.15,241.3 266.68,241.29 267.21,241.27 267.74,241.25 268.27,241.22 268.81,241.18 269.34,241.14 269.87,241.09 270.4,241.03 270.93,240.97 271.46,240.9 271.99,240.82 272.52,240.74 273.06,240.65 273.59,240.55 274.12,240.45 274.65,240.34 275.18,240.23 275.71,240.11 276.24,239.98 276.77,239.85 277.31,239.71 277.84,239.57 278.37,239.42 278.9,239.26 279.43,239.1 279.96,238.93 280.49,238.76 281.02,238.58 281.56,238.4 282.09,238.21 282.62,238.02 283.15,237.82 283.68,237.62 284.21,237.41 284.74,237.2 285.27,236.98 285.81,236.76 286.34,236.53 286.87,236.3 287.4,236.07 287.93,235.83 288.46,235.59 288.99,235.34 289.52,235.09 290.06,234.84 290.59,234.58 291.12,234.32 291.65,234.06 292.18,233.8 292.71,233.53 293.24,233.26 293.77,232.98 294.31,232.71 294.84,232.43 295.37,232.15 295.9,231.87 296.43,231.58 296.96,231.3 297.49,231.01 298.02,230.72 298.56,230.43 299.09,230.14 299.62,229.85 300.15,229.55 300.68,229.26 301.21,228.97 301.74,228.67 302.27,228.37 302.81,228.08 303.34,227.78 303.87,227.49 304.4,227.19 304.93,226.9 305.46,226.6 305.99,226.31 306.52,226.01 307.06,225.72 307.59,225.43 308.12,225.14 308.65,224.85 309.18,224.56 309.71,224.27 310.24,223.99 310.77,223.7 311.31,223.42 311.84,223.14 312.37,222.86 312.9,222.59 313.43,222.31 313.96,222.04 314.49,221.77 315.02,221.51 315.56,221.24 316.09,220.98 316.62,220.72 317.15,220.47 317.68,220.22 318.21,219.97 318.74,219.72 319.27,219.48 319.81,219.24 320.34,219 320.87,218.77 321.4,218.54 321.93,218.32 322.46,218.09 322.99,217.88 323.52,217.66 324.06,217.45 324.59,217.25 325.12,217.04 325.65,216.85 326.18,216.65 326.71,216.46 327.24,216.28 327.77,216.09 328.31,215.92 328.84,215.74 329.37,215.58 329.9,215.41 330.43,215.25 330.96,215.1 331.49,214.95 332.02,214.8 332.56,214.66 333.09,214.52 333.62,214.39 334.15,214.26 334.68,214.14 335.21,214.02 335.74,213.9 336.27,213.79 336.81,213.69 337.34,213.58 337.87,213.49 338.4,213.4 338.93,213.31 339.46,213.23 339.99,213.15 340.52,213.07 341.06,213 341.59,212.94 342.12,212.88 342.65,212.82 343.18,212.77 343.71,212.72 344.24,212.68 344.77,212.64 345.3,212.6 345.84,212.57 346.37,212.55 346.9,212.53 347.43,212.51 347.96,212.49 348.49,212.48 349.02,212.48 349.55,212.47 350.09,212.48 350.62,212.48 351.15,212.49 351.68,212.5 352.21,212.52 352.74,212.54 353.27,212.56 353.8,212.59 354.34,212.62 354.87,212.65 355.4,212.69 355.93,212.73 356.46,212.77 356.99,212.82 357.52,212.87 358.05,212.92 358.59,212.98 359.12,213.04 359.65,213.1 360.18,213.16 360.71,213.23 361.24,213.3 361.77,213.37 362.3,213.45 362.84,213.52 363.37,213.6 363.9,213.69 364.43,213.77 364.96,213.86 365.49,213.94 366.02,214.03 366.55,214.13 367.09,214.22 367.62,214.32 368.15,214.41 368.68,214.51 369.21,214.61 369.74,214.72 370.27,214.82 370.8,214.93 371.34,215.03 371.87,215.14 372.4,215.25 372.93,215.36 373.46,215.48 373.99,215.59 374.52,215.7 375.05,215.82 375.59,215.93 376.12,216.05 376.65,216.17 377.18,216.29 377.71,216.41 378.24,216.53 378.77,216.65 379.3,216.77 379.84,216.89 380.37,217.01 380.9,217.13 381.43,217.25 381.96,217.38 382.49,217.5 383.02,217.62 383.55,217.75 384.09,217.87 384.62,217.99 385.15,218.12 385.68,218.24 386.21,218.36 386.74,218.49 387.27,218.61 387.8,218.73 388.34,218.85 388.87,218.98 389.4,219.1 389.93,219.22 390.46,219.34 390.99,219.46 391.52,219.58 392.05,219.7 392.59,219.82 393.12,219.94 393.65,220.05 394.18,220.17 394.71,220.29 395.24,220.4 395.77,220.52 396.3,220.63 396.84,220.75 397.37,220.86 397.9,220.97 398.43,221.08 398.96,221.19 399.49,221.3 400.02,221.41 400.55,221.52 401.09,221.62 401.62,221.73 402.15,221.83 402.68,221.94 403.21,222.04 403.74,222.14 404.27,222.24 404.8,222.34 405.34,222.44 405.87,222.54 406.4,222.64 406.93,222.73 407.46,222.83 407.99,222.92 408.52,223.01 409.05,223.1 409.59,223.19 410.12,223.28 410.65,223.37 411.18,223.46 411.71,223.54 412.24,223.63 412.77,223.71 413.3,223.79 413.84,223.88 414.37,223.96 414.9,224.03 415.43,224.11 415.96,224.19 416.49,224.27 417.02,224.34 417.55,224.41 418.09,224.49 418.62,224.56 419.15,224.63 419.68,224.7 420.21,224.77 420.74,224.83 421.27,224.9 421.8,224.96 422.34,225.03 422.87,225.09 423.4,225.15 423.93,225.21 424.46,225.27 424.99,225.33 425.52,225.39 426.05,225.45 426.59,225.5 427.12,225.56 427.65,225.61 428.18,225.66 428.71,225.71 429.24,225.77 429.77,225.82 430.3,225.86 430.84,225.91 431.37,225.96 431.9,226.01 432.43,226.05 432.96,226.1 433.49,226.14 434.02,226.18 434.55,226.22 435.09,226.26 435.62,226.3 436.15,226.34 436.68,226.38 437.21,226.42 437.74,226.46 438.27,226.49 438.8,226.53 439.34,226.56 439.87,226.6 440.4,226.63 440.93,226.66 441.46,226.69 441.99,226.73 442.52,226.76 443.05,226.79 443.59,226.82 444.12,226.84 444.65,226.87 445.18,226.9 445.71,226.92 446.24,226.95 446.77,226.98 447.3,227 447.84,227.02 448.37,227.05 448.9,227.07 449.43,227.09 449.96,227.12 450.49,227.14 451.02,227.16 451.55,227.18 452.09,227.2 452.62,227.22 453.15,227.24 453.68,227.25 454.21,227.27 454.74,227.29 455.27,227.31 455.8,227.32 456.34,227.34 456.87,227.35 457.4,227.37 457.93,227.39 458.46,227.4 458.99,227.41 459.52,227.43 460.05,227.44 460.59,227.45 461.12,227.47 461.65,227.48 462.18,227.49 462.71,227.5 463.24,227.51 463.77,227.53 464.3,227.54 464.84,227.55 465.37,227.56 465.9,227.57 466.43,227.58 466.96,227.59 467.49,227.59 468.02,227.6 468.55,227.61 469.09,227.62 469.62,227.63 470.15,227.64 470.68,227.64 471.21,227.65 471.74,227.66 472.27,227.66 472.8,227.67 473.34,227.68 473.87,227.68 474.4,227.69 474.93,227.7 475.46,227.7 475.99,227.71 476.52,227.71 477.05,227.72 477.59,227.72 478.12,227.73 478.65,227.73 479.18,227.74 479.71,227.74 480.24,227.75 480.77,227.75 481.3,227.76 481.84,227.76 482.37,227.76 482.9,227.77 483.43,227.77 483.96,227.77 484.49,227.78 485.02,227.78 485.55,227.78 486.09,227.79 486.62,227.79 487.15,227.79 487.68,227.8 488.21,227.8 488.74,227.8 489.27,227.8 489.8,227.81 490.34,227.81 490.87,227.81 491.4,227.81 491.93,227.81 492.46,227.82 492.99,227.82 493.52,227.82 494.05,227.82 494.59,227.82 495.12,227.83 495.65,227.83 496.18,227.83 496.71,227.83 497.24,227.83 497.77,227.83 498.3,227.83 498.84,227.84 499.37,227.84 499.9,227.84 500.43,227.84 500.96,227.84 501.49,227.84 502.02,227.84 502.55,227.84 503.09,227.84 503.62,227.85 504.15,227.85 504.68,227.85 505.21,227.85 505.74,227.85 506.27,227.85 506.8,227.85 507.34,227.85 507.87,227.85 508.4,227.85 508.93,227.85 509.46,227.85 509.99,227.85 510.52,227.85 511.05,227.86 511.59,227.86 512.12,227.86 512.65,227.86 513.18,227.86 513.71,227.86 514.24,227.86 514.77,227.86 515.3,227.86 515.83,227.86 516.37,227.86 516.9,227.86 517.43,227.86 517.96,227.86 518.49,227.86 519.02,227.86 519.55,227.86 520.08,227.86 520.62,227.86 521.15,227.86 521.68,227.86 522.21,227.86 522.74,227.86 523.27,227.86 523.8,227.86 524.33,227.86 524.87,227.86 525.4,227.86 525.93,227.86 526.46,227.86 526.99,227.86 527.52,227.86 528.05,227.87 528.58,227.87 529.12,227.87 529.65,227.87 530.18,227.87 530.71,227.87 531.24,227.87 531.77,227.87 532.3,227.87 532.49,227.87"/>
</g>
<g fill="none" stroke-width="1.25">
<polyline fill="none" points="-1.25,278.45 -1.06,278.45 -0.53,278.45 0,278.45 0.53,278.45 1.06,278.45 1.59,278.45 2.12,278.45 2.65,278.45 3.18,278.45 3.71,278.45 4.25,278.45 4.78,278.45 5.31,278.45 5.84,278.45 6.37,278.45 6.9,278.45 7.43,278.45 7.96,278.45 8.49,278.45 9.03,278.45 9.56,278.45 10.09,278.45 10.62,278.45 11.15,278.45 11.68,278.45 12.21,278.45 12.74,278.45 13.28,278.45 13.81,278.45 14.34,278.45 14.87,278.45 15.4,278.45 15.93,278.45 16.46,278.45 16.99,278.45 17.53,278.45 18.06,278.45 18.59,278.45 19.12,278.45 19.65,278.45 20.18,278.45 20.71,278.45 21.24,278.45 21.78,278.45 22.31,278.45 22.84,278.45 23.37,278.46 23.9,278.46 24.43,278.46 24.96,278.46 25.49,278.46 26.03,278.46 26.56,278.46 27.09,278.46 27.62,278.46 28.15,278.46 28.68,278.46 29.21,278.46 29.74,278.46 30.28,278.46 30.81,278.46 31.34,278.46 31.87,278.46 32.4,278.46 32.93,278.46 33.46,278.46 33.99,278.46 34.53,278.46 35.06,278.46 35.59,278.46 36.12,278.46 36.65,278.46 37.18,278.46 37.71,278.46 38.24,278.46 38.78,278.46 39.31,278.46 39.84,278.46 40.37,278.47 40.9,278.47 41.43,278.47 41.96,278.47 42.49,278.47 43.03,278.47 43.56,278.47 44.09,278.47 44.62,278.47 45.15,278.47 45.68,278.47 46.21,278.47 46.74,278.47 47.28,278.48 47.81,278.48 48.34,278.48 48.87,278.48 49.4,278.48 49.93,278.48 50.46,278.48 50.99,278.48 51.53,278.48 52.06,278.48 52.59,278.49 53.12,278.49 53.65,278.49 54.18,278.49 54.71,278.49 55.24,278.49 55.78,278.49 56.31,278.5 56.84,278.5 57.37,278.5 57.9,278.5 58.43,278.5 58.96,278.51 59.49,278.51 60.03,278.51 60.56,278.51 61.09,278.51 61.62,278.52 62.15,278.52 62.68,278.52 63.21,278.52 63.74,278.53 64.28,278.53 64.81,278.53 65.34,278.53 65.87,278.54 66.4,278.54 66.93,278.54 67.46,278.55 67.99,278.55 68.53,278.55 69.06,278.56 69.59,278.56 70.12,278.56 70.65,278.57 71.18,278.57 71.71,278.58 72.24,278.58 72.78,278.59 73.31,278.59 73.84,278.59 74.37,278.6 74.9,278.6 75.43,278.61 75.96,278.62 76.49,278.62 77.03,278.63 77.56,278.63 78.09,278.64 78.62,278.64 79.15,278.65 79.68,278.66 80.21,278.66 80.74,278.67 81.28,278.68 81.81,278.69 82.34,278.69 82.87,278.7 83.4,278.71 83.93,278.72 84.46,278.72 84.99,278.73 85.53,278.74 86.06,278.75 86.59,278.76 87.12,278.77 87.65,278.78 88.18,278.79 88.71,278.8 89.24,278.81 89.78,278.82 90.31,278.83 90.84,278.85 91.37,278.86 91.9,278.87 92.43,278.88 92.96,278.9 93.49,278.91 94.03,278.92 94.56,278.94 95.09,278.95 95.62,278.97 96.15,278.98 96.68,279 97.21,279.01 97.74,279.03 98.28,279.04 98.81,279.06 99.34,279.08 99.87,279.1 100.4,279.11 100.93,279.13 101.46,279.15 101.99,279.17 102.53,279.19 103.06,279.21 103.59,279.23 104.12,279.26 104.65,279.28 105.18,279.3 105.71,279.32 106.24,279.35 106.78,279.37 107.31,279.4 107.84,279.42 108.37,279.45 108.9,279.47 109.43,279.5 109.96,279.53 110.49,279.56 111.03,279.58 111.56,279.61 112.09,279.64 112.62,279.67 113.15,279.71 113.68,279.74 114.21,279.77 114.74,279.8 115.28,279.84 115.81,279.87 116.34,279.91 116.87,279.94 117.4,279.98 117.93,280.02 118.46,280.06 118.99,280.1 119.53,280.14 120.06,280.18 120.59,280.22 121.12,280.26 121.65,280.3 122.18,280.35 122.71,280.39 123.24,280.44 123.78,280.48 124.31,280.53 124.84,280.58 125.37,280.63 125.9,280.68 126.43,280.73 126.96,280.78 127.49,280.83 128.03,280.88 128.56,280.94 129.09,280.99 129.62,281.05 130.15,281.1 130.68,281.16 131.21,281.22 131.74,281.28 132.28,281.34 132.81,281.4 133.34,281.46 133.87,281.53 134.4,281.59 134.93,281.66 135.46,281.72 135.99,281.79 136.53,281.86 137.06,281.93 137.59,282 138.12,282.07 138.65,282.14 139.18,282.22 139.71,282.29 140.24,282.37 140.78,282.44 141.31,282.52 141.84,282.6 142.37,282.68 142.9,282.76 143.43,282.84 143.96,282.92 144.49,283 145.03,283.09 145.56,283.17 146.09,283.26 146.62,283.35 147.15,283.44 147.68,283.53 148.21,283.62 148.74,283.71 149.28,283.8 149.81,283.89 150.34,283.99 150.87,284.08 151.4,284.18 151.93,284.27 152.46,284.37 152.99,284.47 153.53,284.57 154.06,284.67 154.59,284.77 155.12,284.88 155.65,284.98 156.18,285.08 156.71,285.19 157.24,285.29 157.78,285.4 158.31,285.51 158.84,285.61 159.37,285.72 159.9,285.83 160.43,285.94 160.96,286.05 161.49,286.17 162.03,286.28 162.56,286.39 163.09,286.5 163.62,286.62 164.15,286.73 164.68,286.85 165.21,286.96 165.74,287.08 166.28,287.2 166.81,287.31 167.34,287.43 167.87,287.55 168.4,287.67 168.93,287.78 169.46,287.9 169.99,288.02 170.53,288.14 171.06,288.26 171.59,288.38 172.12,288.5 172.65,288.62 173.18,288.74 173.71,288.86 174.24,288.98 174.78,289.1 175.31,289.22 175.84,289.34 176.37,289.46 176.9,289.58 177.43,289.7 177.96,289.81 178.49,289.93 179.02,290.05 179.56,290.17 180.09,290.29 180.62,290.4 181.15,290.52 181.68,290.63 182.21,290.75 182.74,290.86 183.27,290.98 183.81,291.09 184.34,291.2 184.87,291.31 185.4,291.42 185.93,291.53 186.46,291.64 186.99,291.75 187.52,291.86 188.06,291.96 188.59,292.07 189.12,292.17 189.65,292.27 190.18,292.37 190.71,292.47 191.24,292.57 191.77,292.66 192.31,292.76 192.84,292.85 193.37,292.94 193.9,293.03 194.43,293.12 194.96,293.21 195.49,293.29 196.02,293.37 196.56,293.45 197.09,293.53 197.62,293.61 198.15,293.68 198.68,293.76 199.21,293.83 199.74,293.89 200.27,293.96 200.81,294.02 201.34,294.09 201.87,294.14 202.4,294.2 202.93,294.25 203.46,294.31 203.99,294.35 204.52,294.4 205.06,294.44 205.59,294.48 206.12,294.52 206.65,294.56 207.18,294.59 207.71,294.62 208.24,294.64 208.77,294.67 209.31,294.69 209.84,294.71 210.37,294.72 210.9,294.73 211.43,294.74 211.96,294.74 212.49,294.75 213.02,294.74 213.56,294.74 214.09,294.73 214.62,294.72 215.15,294.7 215.68,294.69 216.21,294.66 216.74,294.64 217.27,294.61 217.81,294.58 218.34,294.54 218.87,294.5 219.4,294.46 219.93,294.41 220.46,294.36 220.99,294.31 221.52,294.25 222.06,294.19 222.59,294.13 223.12,294.06 223.65,293.99 224.18,293.91 224.71,293.83 225.24,293.75 225.77,293.66 226.31,293.57 226.84,293.48 227.37,293.38 227.9,293.28 228.43,293.17 228.96,293.06 229.49,292.95 230.02,292.83 230.56,292.71 231.09,292.59 231.62,292.46 232.15,292.33 232.68,292.2 233.21,292.06 233.74,291.92 234.27,291.77 234.81,291.62 235.34,291.47 235.87,291.31 236.4,291.15 236.93,290.99 237.46,290.82 237.99,290.65 238.52,290.48 239.06,290.31 239.59,290.13 240.12,289.94 240.65,289.76 241.18,289.57 241.71,289.38 242.24,289.18 242.77,288.98 243.31,288.78 243.84,288.58 244.37,288.37 244.9,288.16 245.43,287.95 245.96,287.73 246.49,287.52 247.02,287.3 247.56,287.07 248.09,286.85 248.62,286.62 249.15,286.39 249.68,286.16 250.21,285.92 250.74,285.68 251.27,285.45 251.81,285.2 252.34,284.96 252.87,284.72 253.4,284.47 253.93,284.22 254.46,283.97 254.99,283.72 255.52,283.46 256.06,283.21 256.59,282.95 257.12,282.7 257.65,282.44 258.18,282.18 258.71,281.91 259.24,281.65 259.77,281.39 260.31,281.12 260.84,280.86 261.37,280.59 261.9,280.33 262.43,280.06 262.96,279.79 263.49,279.53 264.02,279.26 264.56,278.99 265.09,278.72 265.62,278.45 266.15,278.18 266.68,277.91 267.21,277.65 267.74,277.38 268.27,277.11 268.81,276.84 269.34,276.58 269.87,276.31 270.4,276.04 270.93,275.78 271.46,275.51 271.99,275.25 272.52,274.99 273.06,274.73 273.59,274.47 274.12,274.21 274.65,273.95 275.18,273.69 275.71,273.44 276.24,273.18 276.77,272.93 277.31,272.68 277.84,272.43 278.37,272.19 278.9,271.94 279.43,271.7 279.96,271.46 280.49,271.22 281.02,270.98 281.56,270.75 282.09,270.51 282.62,270.28 283.15,270.06 283.68,269.83 284.21,269.61 284.74,269.39 285.27,269.17 285.81,268.95 286.34,268.74 286.87,268.53 287.4,268.32 287.93,268.12 288.46,267.92 288.99,267.72 289.52,267.53 290.06,267.33 290.59,267.14 291.12,266.96 291.65,266.78 292.18,266.6 292.71,266.42 293.24,266.25 293.77,266.08 294.31,265.91 294.84,265.75 295.37,265.59 295.9,265.43 296.43,265.28 296.96,265.13 297.49,264.99 298.02,264.85 298.56,264.71 299.09,264.57 299.62,264.44 300.15,264.31 300.68,264.19 301.21,264.07 301.74,263.95 302.27,263.84 302.81,263.73 303.34,263.63 303.87,263.52 304.4,263.43 304.93,263.33 305.46,263.24 305.99,263.15 306.52,263.07 307.06,262.99 307.59,262.92 308.12,262.84 308.65,262.78 309.18,262.71 309.71,262.65 310.24,262.59 310.77,262.54 311.31,262.49 311.84,262.44 312.37,262.4 312.9,262.36 313.43,262.32 313.96,262.29 314.49,262.26 315.02,262.24 315.56,262.22 316.09,262.2 316.62,262.18 317.15,262.17 317.68,262.16 318.21,262.16 318.74,262.16 319.27,262.16 319.81,262.16 320.34,262.17 320.87,262.18 321.4,262.2 321.93,262.21 322.46,262.23 322.99,262.26 323.52,262.28 324.06,262.31 324.59,262.35 325.12,262.38 325.65,262.42 326.18,262.46 326.71,262.5 327.24,262.55 327.77,262.6 328.31,262.65 328.84,262.7 329.37,262.76 329.9,262.82 330.43,262.88 330.96,262.94 331.49,263.01 332.02,263.08 332.56,263.15 333.09,263.22 333.62,263.29 334.15,263.37 334.68,263.45 335.21,263.53 335.74,263.61 336.27,263.7 336.81,263.78 337.34,263.87 337.87,263.96 338.4,264.05 338.93,264.14 339.46,264.24 339.99,264.34 340.52,264.43 341.06,264.53 341.59,264.63 342.12,264.73 342.65,264.84 343.18,264.94 343.71,265.05 344.24,265.15 344.77,265.26 345.3,265.37 345.84,265.48 346.37,265.59 346.9,265.7 347.43,265.81 347.96,265.92 348.49,266.04 349.02,266.15 349.55,266.27 350.09,266.38 350.62,266.5 351.15,266.62 351.68,266.73 352.21,266.85 352.74,266.97 353.27,267.09 353.8,267.21 354.34,267.33 354.87,267.45 355.4,267.56 355.93,267.68 356.46,267.8 356.99,267.92 357.52,268.04 358.05,268.16 358.59,268.28 359.12,268.4 359.65,268.52 360.18,268.64 360.71,268.76 361.24,268.88 361.77,269 362.3,269.12 362.84,269.24 363.37,269.36 363.9,269.47 364.43,269.59 364.96,269.71 365.49,269.82 366.02,269.94 366.55,270.06 367.09,270.17 367.62,270.29 368.15,270.4 368.68,270.51 369.21,270.63 369.74,270.74 370.27,270.85 370.8,270.96 371.34,271.07 371.87,271.18 372.4,271.29 372.93,271.4 373.46,271.5 373.99,271.61 374.52,271.72 375.05,271.82 375.59,271.92 376.12,272.03 376.65,272.13 377.18,272.23 377.71,272.33 378.24,272.43 378.77,272.53 379.3,272.63 379.84,272.72 380.37,272.82 380.9,272.92 381.43,273.01 381.96,273.1 382.49,273.2 383.02,273.29 383.55,273.38 384.09,273.47 384.62,273.55 385.15,273.64 385.68,273.73 386.21,273.81 386.74,273.9 387.27,273.98 387.8,274.06 388.34,274.15 388.87,274.23 389.4,274.3 389.93,274.38 390.46,274.46 390.99,274.54 391.52,274.61 392.05,274.69 392.59,274.76 393.12,274.83 393.65,274.9 394.18,274.97 394.71,275.04 395.24,275.11 395.77,275.18 396.3,275.24 396.84,275.31 397.37,275.37 397.9,275.44 398.43,275.5 398.96,275.56 399.49,275.62 400.02,275.68 400.55,275.74 401.09,275.8 401.62,275.86 402.15,275.91 402.68,275.97 403.21,276.02 403.74,276.07 404.27,276.13 404.8,276.18 405.34,276.23 405.87,276.28 406.4,276.33 406.93,276.37 407.46,276.42 407.99,276.47 408.52,276.51 409.05,276.56 409.59,276.6 410.12,276.64 410.65,276.69 411.18,276.73 411.71,276.77 412.24,276.81 412.77,276.85 413.3,276.88 413.84,276.92 414.37,276.96 414.9,276.99 415.43,277.03 415.96,277.06 416.49,277.1 417.02,277.13 417.55,277.16 418.09,277.2 418.62,277.23 419.15,277.26 419.68,277.29 420.21,277.32 420.74,277.35 421.27,277.38 421.8,277.4 422.34,277.43 422.87,277.46 423.4,277.48 423.93,277.51 424.46,277.53 424.99,277.56 425.52,277.58 426.05,277.6 426.59,277.63 427.12,277.65 427.65,277.67 428.18,277.69 428.71,277.71 429.24,277.73 429.77,277.75 430.3,277.77 430.84,277.79 431.37,277.81 431.9,277.82 432.43,277.84 432.96,277.86 433.49,277.88 434.02,277.89 434.55,277.91 435.09,277.92 435.62,277.94 436.15,277.95 436.68,277.97 437.21,277.98 437.74,277.99 438.27,278.01 438.8,278.02 439.34,278.03 439.87,278.04 440.4,278.06 440.93,278.07 441.46,278.08 441.99,278.09 442.52,278.1 443.05,278.11 443.59,278.12 444.12,278.13 444.65,278.14 445.18,278.15 445.71,278.16 446.24,278.17 446.77,278.18 447.3,278.19 447.84,278.19 448.37,278.2 448.9,278.21 449.43,278.22 449.96,278.22 450.49,278.23 451.02,278.24 451.55,278.25 452.09,278.25 452.62,278.26 453.15,278.26 453.68,278.27 454.21,278.28 454.74,278.28 455.27,278.29 455.8,278.29 456.34,278.3 456.87,278.3 457.4,278.31 457.93,278.31 458.46,278.32 458.99,278.32 459.52,278.33 460.05,278.33 460.59,278.33 461.12,278.34 461.65,278.34 462.18,278.35 462.71,278.35 463.24,278.35 463.77,278.36 464.3,278.36 464.84,278.36 465.37,278.37 465.9,278.37 466.43,278.37 466.96,278.37 467.49,278.38 468.02,278.38 468.55,278.38 469.09,278.38 469.62,278.39 470.15,278.39 470.68,278.39 471.21,278.39 471.74,278.4 472.27,278.4 472.8,278.4 473.34,278.4 473.87,278.4 474.4,278.4 474.93,278.41 475.46,278.41 475.99,278.41 476.52,278.41 477.05,278.41 477.59,278.41 478.12,278.42 478.65,278.42 479.18,278.42 479.71,278.42 480.24,278.42 480.77,278.42 481.3,278.42 481.84,278.42 482.37,278.42 482.9,278.43 483.43,278.43 483.96,278.43 484.49,278.43 485.02,278.43 485.55,278.43 486.09,278.43 486.62,278.43 487.15,278.43 487.68,278.43 488.21,278.43 488.74,278.43 489.27,278.44 489.8,278.44 490.34,278.44 490.87,278.44 491.4,278.44 491.93,278.44 492.46,278.44 492.99,278.44 493.52,278.44 494.05,278.44 494.59,278.44 495.12,278.44 495.65,278.44 496.18,278.44 496.71,278.44 497.24,278.44 497.77,278.44 498.3,278.44 498.84,278.44 499.37,278.44 499.9,278.44 500.43,278.44 500.96,278.44 501.49,278.45 502.02,278.45 502.55,278.45 503.09,278.45 503.62,278.45 504.15,278.45 504.68,278.45 505.21,278.45 505.74,278.45 506.27,278.45 506.8,278.45 507.34,278.45 507.87,278.45 508.4,278.45 508.93,278.45 509.46,278.45 509.99,278.45 510.52,278.45 511.05,278.45 511.59,278.45 512.12,278.45 512.65,278.45 513.18,278.45 513.71,278.45 514.24,278.45 514.77,278.45 515.3,278.45 515.83,278.45 516.37,278.45 516.9,278.45 517.43,278.45 517.96,278.45 518.49,278.45 519.02,278.45 519.55,278.45 520.08,278.45 520.62,278.45 521.15,278.45 521.68,278.45 522.21,278.45 522.74,278.45 523.27,278.45 523.8,278.45 524.33,278.45 524.87,278.45 525.4,278.45 525.93,278.45 526.46,278.45 526.99,278.45 527.52,278.45 528.05,278.45 528.58,278.45 529.12,278.45 529.65,278.45 530.18,278.45 530.71,278.45 531.24,278.45 531.77,278.45 532.3,278.45 532.49,278.45"/>
</g>
</g>
</g>
</svg>
